<svg width="32" height="32" viewBox="0 0 32 32" fill="none" xmlns="http://www.w3.org/2000/svg">
<g filter="url(#filter0_i_151_4332)">
<path fill-rule="evenodd" clip-rule="evenodd" d="M23.0534 14.2611C23.296 13.7644 23.4231 13.2098 23.4231 12.6322C23.4231 12.0987 23.3133 11.5982 23.1165 11.1419H23.1226C23.0308 10.9353 22.9276 10.7401 22.8016 10.5563L22.7993 10.5527C22.4065 9.95196 22.1985 9.24724 22.1985 8.53097V8.51942C19.3771 8.51942 18.4189 3.96753 14.8508 3.96753C10.8884 3.96753 11.081 7.34344 7.50328 8.51942V8.53097C7.50328 9.24724 7.29533 9.95196 6.90254 10.5527L6.89992 10.5569C6.50879 11.1567 6.27881 11.86 6.27881 12.6322C6.27881 13.2214 6.41744 13.7644 6.6485 14.2611C6.72937 14.4229 6.72937 14.6193 6.6485 14.781C6.41744 15.2662 6.27881 15.8092 6.27881 16.3868C6.27881 18.4201 7.9193 20.0606 9.95259 20.0606H19.7493C21.7826 20.0606 23.4231 18.4201 23.4231 16.3868C23.4231 15.8092 23.2845 15.2662 23.0534 14.781C22.9725 14.6193 22.9725 14.4229 23.0534 14.2611ZM9.05756 11.2104H9.0435L10.4119 13.8994C10.5527 17.0987 11.8012 13.8994 14.8508 13.8994C17.9005 13.8994 19.2303 17.4604 19.3711 14.2611L19.0873 11.1419C19.026 9.72083 19.5766 9.09057 19.3711 9.09057H15.6952C14.2436 9.09057 12.8739 8.38007 12.0545 7.18038C11.914 6.98238 11.6213 7.01732 11.5277 7.23862L11.434 7.45992C11.1765 8.10053 10.6848 8.58973 10.076 8.86927C10.0585 8.87509 10.038 8.88383 10.0175 8.89256C9.99701 8.9013 9.97652 8.91003 9.95897 8.91586C9.68971 9.05563 9.05756 9.47493 9.03414 10.5581L9.04585 10.9076L9.05756 11.2104Z" fill="url(#paint0_linear_151_4332)"/>
<path fill-rule="evenodd" clip-rule="evenodd" d="M23.0534 14.2611C23.296 13.7644 23.4231 13.2098 23.4231 12.6322C23.4231 12.0987 23.3133 11.5982 23.1165 11.1419H23.1226C23.0308 10.9353 22.9276 10.7401 22.8016 10.5563L22.7993 10.5527C22.4065 9.95196 22.1985 9.24724 22.1985 8.53097V8.51942C19.3771 8.51942 18.4189 3.96753 14.8508 3.96753C10.8884 3.96753 11.081 7.34344 7.50328 8.51942V8.53097C7.50328 9.24724 7.29533 9.95196 6.90254 10.5527L6.89992 10.5569C6.50879 11.1567 6.27881 11.86 6.27881 12.6322C6.27881 13.2214 6.41744 13.7644 6.6485 14.2611C6.72937 14.4229 6.72937 14.6193 6.6485 14.781C6.41744 15.2662 6.27881 15.8092 6.27881 16.3868C6.27881 18.4201 7.9193 20.0606 9.95259 20.0606H19.7493C21.7826 20.0606 23.4231 18.4201 23.4231 16.3868C23.4231 15.8092 23.2845 15.2662 23.0534 14.781C22.9725 14.6193 22.9725 14.4229 23.0534 14.2611ZM9.05756 11.2104H9.0435L10.4119 13.8994C10.5527 17.0987 11.8012 13.8994 14.8508 13.8994C17.9005 13.8994 19.2303 17.4604 19.3711 14.2611L19.0873 11.1419C19.026 9.72083 19.5766 9.09057 19.3711 9.09057H15.6952C14.2436 9.09057 12.8739 8.38007 12.0545 7.18038C11.914 6.98238 11.6213 7.01732 11.5277 7.23862L11.434 7.45992C11.1765 8.10053 10.6848 8.58973 10.076 8.86927C10.0585 8.87509 10.038 8.88383 10.0175 8.89256C9.99701 8.9013 9.97652 8.91003 9.95897 8.91586C9.68971 9.05563 9.05756 9.47493 9.03414 10.5581L9.04585 10.9076L9.05756 11.2104Z" fill="url(#paint1_radial_151_4332)"/>
<path fill-rule="evenodd" clip-rule="evenodd" d="M23.0534 14.2611C23.296 13.7644 23.4231 13.2098 23.4231 12.6322C23.4231 12.0987 23.3133 11.5982 23.1165 11.1419H23.1226C23.0308 10.9353 22.9276 10.7401 22.8016 10.5563L22.7993 10.5527C22.4065 9.95196 22.1985 9.24724 22.1985 8.53097V8.51942C19.3771 8.51942 18.4189 3.96753 14.8508 3.96753C10.8884 3.96753 11.081 7.34344 7.50328 8.51942V8.53097C7.50328 9.24724 7.29533 9.95196 6.90254 10.5527L6.89992 10.5569C6.50879 11.1567 6.27881 11.86 6.27881 12.6322C6.27881 13.2214 6.41744 13.7644 6.6485 14.2611C6.72937 14.4229 6.72937 14.6193 6.6485 14.781C6.41744 15.2662 6.27881 15.8092 6.27881 16.3868C6.27881 18.4201 7.9193 20.0606 9.95259 20.0606H19.7493C21.7826 20.0606 23.4231 18.4201 23.4231 16.3868C23.4231 15.8092 23.2845 15.2662 23.0534 14.781C22.9725 14.6193 22.9725 14.4229 23.0534 14.2611ZM9.05756 11.2104H9.0435L10.4119 13.8994C10.5527 17.0987 11.8012 13.8994 14.8508 13.8994C17.9005 13.8994 19.2303 17.4604 19.3711 14.2611L19.0873 11.1419C19.026 9.72083 19.5766 9.09057 19.3711 9.09057H15.6952C14.2436 9.09057 12.8739 8.38007 12.0545 7.18038C11.914 6.98238 11.6213 7.01732 11.5277 7.23862L11.434 7.45992C11.1765 8.10053 10.6848 8.58973 10.076 8.86927C10.0585 8.87509 10.038 8.88383 10.0175 8.89256C9.99701 8.9013 9.97652 8.91003 9.95897 8.91586C9.68971 9.05563 9.05756 9.47493 9.03414 10.5581L9.04585 10.9076L9.05756 11.2104Z" fill="url(#paint2_radial_151_4332)"/>
<path fill-rule="evenodd" clip-rule="evenodd" d="M23.0534 14.2611C23.296 13.7644 23.4231 13.2098 23.4231 12.6322C23.4231 12.0987 23.3133 11.5982 23.1165 11.1419H23.1226C23.0308 10.9353 22.9276 10.7401 22.8016 10.5563L22.7993 10.5527C22.4065 9.95196 22.1985 9.24724 22.1985 8.53097V8.51942C19.3771 8.51942 18.4189 3.96753 14.8508 3.96753C10.8884 3.96753 11.081 7.34344 7.50328 8.51942V8.53097C7.50328 9.24724 7.29533 9.95196 6.90254 10.5527L6.89992 10.5569C6.50879 11.1567 6.27881 11.86 6.27881 12.6322C6.27881 13.2214 6.41744 13.7644 6.6485 14.2611C6.72937 14.4229 6.72937 14.6193 6.6485 14.781C6.41744 15.2662 6.27881 15.8092 6.27881 16.3868C6.27881 18.4201 7.9193 20.0606 9.95259 20.0606H19.7493C21.7826 20.0606 23.4231 18.4201 23.4231 16.3868C23.4231 15.8092 23.2845 15.2662 23.0534 14.781C22.9725 14.6193 22.9725 14.4229 23.0534 14.2611ZM9.05756 11.2104H9.0435L10.4119 13.8994C10.5527 17.0987 11.8012 13.8994 14.8508 13.8994C17.9005 13.8994 19.2303 17.4604 19.3711 14.2611L19.0873 11.1419C19.026 9.72083 19.5766 9.09057 19.3711 9.09057H15.6952C14.2436 9.09057 12.8739 8.38007 12.0545 7.18038C11.914 6.98238 11.6213 7.01732 11.5277 7.23862L11.434 7.45992C11.1765 8.10053 10.6848 8.58973 10.076 8.86927C10.0585 8.87509 10.038 8.88383 10.0175 8.89256C9.99701 8.9013 9.97652 8.91003 9.95897 8.91586C9.68971 9.05563 9.05756 9.47493 9.03414 10.5581L9.04585 10.9076L9.05756 11.2104Z" fill="url(#paint3_radial_151_4332)"/>
<path fill-rule="evenodd" clip-rule="evenodd" d="M23.0534 14.2611C23.296 13.7644 23.4231 13.2098 23.4231 12.6322C23.4231 12.0987 23.3133 11.5982 23.1165 11.1419H23.1226C23.0308 10.9353 22.9276 10.7401 22.8016 10.5563L22.7993 10.5527C22.4065 9.95196 22.1985 9.24724 22.1985 8.53097V8.51942C19.3771 8.51942 18.4189 3.96753 14.8508 3.96753C10.8884 3.96753 11.081 7.34344 7.50328 8.51942V8.53097C7.50328 9.24724 7.29533 9.95196 6.90254 10.5527L6.89992 10.5569C6.50879 11.1567 6.27881 11.86 6.27881 12.6322C6.27881 13.2214 6.41744 13.7644 6.6485 14.2611C6.72937 14.4229 6.72937 14.6193 6.6485 14.781C6.41744 15.2662 6.27881 15.8092 6.27881 16.3868C6.27881 18.4201 7.9193 20.0606 9.95259 20.0606H19.7493C21.7826 20.0606 23.4231 18.4201 23.4231 16.3868C23.4231 15.8092 23.2845 15.2662 23.0534 14.781C22.9725 14.6193 22.9725 14.4229 23.0534 14.2611ZM9.05756 11.2104H9.0435L10.4119 13.8994C10.5527 17.0987 11.8012 13.8994 14.8508 13.8994C17.9005 13.8994 19.2303 17.4604 19.3711 14.2611L19.0873 11.1419C19.026 9.72083 19.5766 9.09057 19.3711 9.09057H15.6952C14.2436 9.09057 12.8739 8.38007 12.0545 7.18038C11.914 6.98238 11.6213 7.01732 11.5277 7.23862L11.434 7.45992C11.1765 8.10053 10.6848 8.58973 10.076 8.86927C10.0585 8.87509 10.038 8.88383 10.0175 8.89256C9.99701 8.9013 9.97652 8.91003 9.95897 8.91586C9.68971 9.05563 9.05756 9.47493 9.03414 10.5581L9.04585 10.9076L9.05756 11.2104Z" fill="url(#paint4_radial_151_4332)"/>
<path fill-rule="evenodd" clip-rule="evenodd" d="M23.0534 14.2611C23.296 13.7644 23.4231 13.2098 23.4231 12.6322C23.4231 12.0987 23.3133 11.5982 23.1165 11.1419H23.1226C23.0308 10.9353 22.9276 10.7401 22.8016 10.5563L22.7993 10.5527C22.4065 9.95196 22.1985 9.24724 22.1985 8.53097V8.51942C19.3771 8.51942 18.4189 3.96753 14.8508 3.96753C10.8884 3.96753 11.081 7.34344 7.50328 8.51942V8.53097C7.50328 9.24724 7.29533 9.95196 6.90254 10.5527L6.89992 10.5569C6.50879 11.1567 6.27881 11.86 6.27881 12.6322C6.27881 13.2214 6.41744 13.7644 6.6485 14.2611C6.72937 14.4229 6.72937 14.6193 6.6485 14.781C6.41744 15.2662 6.27881 15.8092 6.27881 16.3868C6.27881 18.4201 7.9193 20.0606 9.95259 20.0606H19.7493C21.7826 20.0606 23.4231 18.4201 23.4231 16.3868C23.4231 15.8092 23.2845 15.2662 23.0534 14.781C22.9725 14.6193 22.9725 14.4229 23.0534 14.2611ZM9.05756 11.2104H9.0435L10.4119 13.8994C10.5527 17.0987 11.8012 13.8994 14.8508 13.8994C17.9005 13.8994 19.2303 17.4604 19.3711 14.2611L19.0873 11.1419C19.026 9.72083 19.5766 9.09057 19.3711 9.09057H15.6952C14.2436 9.09057 12.8739 8.38007 12.0545 7.18038C11.914 6.98238 11.6213 7.01732 11.5277 7.23862L11.434 7.45992C11.1765 8.10053 10.6848 8.58973 10.076 8.86927C10.0585 8.87509 10.038 8.88383 10.0175 8.89256C9.99701 8.9013 9.97652 8.91003 9.95897 8.91586C9.68971 9.05563 9.05756 9.47493 9.03414 10.5581L9.04585 10.9076L9.05756 11.2104Z" fill="url(#paint5_radial_151_4332)"/>
<path fill-rule="evenodd" clip-rule="evenodd" d="M23.0534 14.2611C23.296 13.7644 23.4231 13.2098 23.4231 12.6322C23.4231 12.0987 23.3133 11.5982 23.1165 11.1419H23.1226C23.0308 10.9353 22.9276 10.7401 22.8016 10.5563L22.7993 10.5527C22.4065 9.95196 22.1985 9.24724 22.1985 8.53097V8.51942C19.3771 8.51942 18.4189 3.96753 14.8508 3.96753C10.8884 3.96753 11.081 7.34344 7.50328 8.51942V8.53097C7.50328 9.24724 7.29533 9.95196 6.90254 10.5527L6.89992 10.5569C6.50879 11.1567 6.27881 11.86 6.27881 12.6322C6.27881 13.2214 6.41744 13.7644 6.6485 14.2611C6.72937 14.4229 6.72937 14.6193 6.6485 14.781C6.41744 15.2662 6.27881 15.8092 6.27881 16.3868C6.27881 18.4201 7.9193 20.0606 9.95259 20.0606H19.7493C21.7826 20.0606 23.4231 18.4201 23.4231 16.3868C23.4231 15.8092 23.2845 15.2662 23.0534 14.781C22.9725 14.6193 22.9725 14.4229 23.0534 14.2611ZM9.05756 11.2104H9.0435L10.4119 13.8994C10.5527 17.0987 11.8012 13.8994 14.8508 13.8994C17.9005 13.8994 19.2303 17.4604 19.3711 14.2611L19.0873 11.1419C19.026 9.72083 19.5766 9.09057 19.3711 9.09057H15.6952C14.2436 9.09057 12.8739 8.38007 12.0545 7.18038C11.914 6.98238 11.6213 7.01732 11.5277 7.23862L11.434 7.45992C11.1765 8.10053 10.6848 8.58973 10.076 8.86927C10.0585 8.87509 10.038 8.88383 10.0175 8.89256C9.99701 8.9013 9.97652 8.91003 9.95897 8.91586C9.68971 9.05563 9.05756 9.47493 9.03414 10.5581L9.04585 10.9076L9.05756 11.2104Z" fill="url(#paint6_radial_151_4332)"/>
<path fill-rule="evenodd" clip-rule="evenodd" d="M23.0534 14.2611C23.296 13.7644 23.4231 13.2098 23.4231 12.6322C23.4231 12.0987 23.3133 11.5982 23.1165 11.1419H23.1226C23.0308 10.9353 22.9276 10.7401 22.8016 10.5563L22.7993 10.5527C22.4065 9.95196 22.1985 9.24724 22.1985 8.53097V8.51942C19.3771 8.51942 18.4189 3.96753 14.8508 3.96753C10.8884 3.96753 11.081 7.34344 7.50328 8.51942V8.53097C7.50328 9.24724 7.29533 9.95196 6.90254 10.5527L6.89992 10.5569C6.50879 11.1567 6.27881 11.86 6.27881 12.6322C6.27881 13.2214 6.41744 13.7644 6.6485 14.2611C6.72937 14.4229 6.72937 14.6193 6.6485 14.781C6.41744 15.2662 6.27881 15.8092 6.27881 16.3868C6.27881 18.4201 7.9193 20.0606 9.95259 20.0606H19.7493C21.7826 20.0606 23.4231 18.4201 23.4231 16.3868C23.4231 15.8092 23.2845 15.2662 23.0534 14.781C22.9725 14.6193 22.9725 14.4229 23.0534 14.2611ZM9.05756 11.2104H9.0435L10.4119 13.8994C10.5527 17.0987 11.8012 13.8994 14.8508 13.8994C17.9005 13.8994 19.2303 17.4604 19.3711 14.2611L19.0873 11.1419C19.026 9.72083 19.5766 9.09057 19.3711 9.09057H15.6952C14.2436 9.09057 12.8739 8.38007 12.0545 7.18038C11.914 6.98238 11.6213 7.01732 11.5277 7.23862L11.434 7.45992C11.1765 8.10053 10.6848 8.58973 10.076 8.86927C10.0585 8.87509 10.038 8.88383 10.0175 8.89256C9.99701 8.9013 9.97652 8.91003 9.95897 8.91586C9.68971 9.05563 9.05756 9.47493 9.03414 10.5581L9.04585 10.9076L9.05756 11.2104Z" fill="url(#paint7_radial_151_4332)"/>
<path fill-rule="evenodd" clip-rule="evenodd" d="M23.0534 14.2611C23.296 13.7644 23.4231 13.2098 23.4231 12.6322C23.4231 12.0987 23.3133 11.5982 23.1165 11.1419H23.1226C23.0308 10.9353 22.9276 10.7401 22.8016 10.5563L22.7993 10.5527C22.4065 9.95196 22.1985 9.24724 22.1985 8.53097V8.51942C19.3771 8.51942 18.4189 3.96753 14.8508 3.96753C10.8884 3.96753 11.081 7.34344 7.50328 8.51942V8.53097C7.50328 9.24724 7.29533 9.95196 6.90254 10.5527L6.89992 10.5569C6.50879 11.1567 6.27881 11.86 6.27881 12.6322C6.27881 13.2214 6.41744 13.7644 6.6485 14.2611C6.72937 14.4229 6.72937 14.6193 6.6485 14.781C6.41744 15.2662 6.27881 15.8092 6.27881 16.3868C6.27881 18.4201 7.9193 20.0606 9.95259 20.0606H19.7493C21.7826 20.0606 23.4231 18.4201 23.4231 16.3868C23.4231 15.8092 23.2845 15.2662 23.0534 14.781C22.9725 14.6193 22.9725 14.4229 23.0534 14.2611ZM9.05756 11.2104H9.0435L10.4119 13.8994C10.5527 17.0987 11.8012 13.8994 14.8508 13.8994C17.9005 13.8994 19.2303 17.4604 19.3711 14.2611L19.0873 11.1419C19.026 9.72083 19.5766 9.09057 19.3711 9.09057H15.6952C14.2436 9.09057 12.8739 8.38007 12.0545 7.18038C11.914 6.98238 11.6213 7.01732 11.5277 7.23862L11.434 7.45992C11.1765 8.10053 10.6848 8.58973 10.076 8.86927C10.0585 8.87509 10.038 8.88383 10.0175 8.89256C9.99701 8.9013 9.97652 8.91003 9.95897 8.91586C9.68971 9.05563 9.05756 9.47493 9.03414 10.5581L9.04585 10.9076L9.05756 11.2104Z" fill="url(#paint8_radial_151_4332)"/>
<path fill-rule="evenodd" clip-rule="evenodd" d="M23.0534 14.2611C23.296 13.7644 23.4231 13.2098 23.4231 12.6322C23.4231 12.0987 23.3133 11.5982 23.1165 11.1419H23.1226C23.0308 10.9353 22.9276 10.7401 22.8016 10.5563L22.7993 10.5527C22.4065 9.95196 22.1985 9.24724 22.1985 8.53097V8.51942C19.3771 8.51942 18.4189 3.96753 14.8508 3.96753C10.8884 3.96753 11.081 7.34344 7.50328 8.51942V8.53097C7.50328 9.24724 7.29533 9.95196 6.90254 10.5527L6.89992 10.5569C6.50879 11.1567 6.27881 11.86 6.27881 12.6322C6.27881 13.2214 6.41744 13.7644 6.6485 14.2611C6.72937 14.4229 6.72937 14.6193 6.6485 14.781C6.41744 15.2662 6.27881 15.8092 6.27881 16.3868C6.27881 18.4201 7.9193 20.0606 9.95259 20.0606H19.7493C21.7826 20.0606 23.4231 18.4201 23.4231 16.3868C23.4231 15.8092 23.2845 15.2662 23.0534 14.781C22.9725 14.6193 22.9725 14.4229 23.0534 14.2611ZM9.05756 11.2104H9.0435L10.4119 13.8994C10.5527 17.0987 11.8012 13.8994 14.8508 13.8994C17.9005 13.8994 19.2303 17.4604 19.3711 14.2611L19.0873 11.1419C19.026 9.72083 19.5766 9.09057 19.3711 9.09057H15.6952C14.2436 9.09057 12.8739 8.38007 12.0545 7.18038C11.914 6.98238 11.6213 7.01732 11.5277 7.23862L11.434 7.45992C11.1765 8.10053 10.6848 8.58973 10.076 8.86927C10.0585 8.87509 10.038 8.88383 10.0175 8.89256C9.99701 8.9013 9.97652 8.91003 9.95897 8.91586C9.68971 9.05563 9.05756 9.47493 9.03414 10.5581L9.04585 10.9076L9.05756 11.2104Z" fill="url(#paint9_radial_151_4332)"/>
<path fill-rule="evenodd" clip-rule="evenodd" d="M23.0534 14.2611C23.296 13.7644 23.4231 13.2098 23.4231 12.6322C23.4231 12.0987 23.3133 11.5982 23.1165 11.1419H23.1226C23.0308 10.9353 22.9276 10.7401 22.8016 10.5563L22.7993 10.5527C22.4065 9.95196 22.1985 9.24724 22.1985 8.53097V8.51942C19.3771 8.51942 18.4189 3.96753 14.8508 3.96753C10.8884 3.96753 11.081 7.34344 7.50328 8.51942V8.53097C7.50328 9.24724 7.29533 9.95196 6.90254 10.5527L6.89992 10.5569C6.50879 11.1567 6.27881 11.86 6.27881 12.6322C6.27881 13.2214 6.41744 13.7644 6.6485 14.2611C6.72937 14.4229 6.72937 14.6193 6.6485 14.781C6.41744 15.2662 6.27881 15.8092 6.27881 16.3868C6.27881 18.4201 7.9193 20.0606 9.95259 20.0606H19.7493C21.7826 20.0606 23.4231 18.4201 23.4231 16.3868C23.4231 15.8092 23.2845 15.2662 23.0534 14.781C22.9725 14.6193 22.9725 14.4229 23.0534 14.2611ZM9.05756 11.2104H9.0435L10.4119 13.8994C10.5527 17.0987 11.8012 13.8994 14.8508 13.8994C17.9005 13.8994 19.2303 17.4604 19.3711 14.2611L19.0873 11.1419C19.026 9.72083 19.5766 9.09057 19.3711 9.09057H15.6952C14.2436 9.09057 12.8739 8.38007 12.0545 7.18038C11.914 6.98238 11.6213 7.01732 11.5277 7.23862L11.434 7.45992C11.1765 8.10053 10.6848 8.58973 10.076 8.86927C10.0585 8.87509 10.038 8.88383 10.0175 8.89256C9.99701 8.9013 9.97652 8.91003 9.95897 8.91586C9.68971 9.05563 9.05756 9.47493 9.03414 10.5581L9.04585 10.9076L9.05756 11.2104Z" fill="url(#paint10_radial_151_4332)"/>
</g>
<path d="M2.72705 29.9206H27.0098C26.6114 23.5527 21.3278 18.5115 14.8684 18.5115C8.40902 18.5115 3.12542 23.5527 2.72705 29.9206Z" fill="#655D95"/>
<path d="M2.72705 29.9206H27.0098C26.6114 23.5527 21.3278 18.5115 14.8684 18.5115C8.40902 18.5115 3.12542 23.5527 2.72705 29.9206Z" fill="url(#paint11_radial_151_4332)"/>
<path d="M2.72705 29.9206H27.0098C26.6114 23.5527 21.3278 18.5115 14.8684 18.5115C8.40902 18.5115 3.12542 23.5527 2.72705 29.9206Z" fill="url(#paint12_radial_151_4332)"/>
<path d="M2.72705 29.9206H27.0098C26.6114 23.5527 21.3278 18.5115 14.8684 18.5115C8.40902 18.5115 3.12542 23.5527 2.72705 29.9206Z" fill="url(#paint13_linear_151_4332)"/>
<path d="M2.72705 29.9206H27.0098C26.6114 23.5527 21.3278 18.5115 14.8684 18.5115C8.40902 18.5115 3.12542 23.5527 2.72705 29.9206Z" fill="url(#paint14_radial_151_4332)"/>
<path d="M2.72705 29.9206H27.0098C26.6114 23.5527 21.3278 18.5115 14.8684 18.5115C8.40902 18.5115 3.12542 23.5527 2.72705 29.9206Z" fill="url(#paint15_radial_151_4332)"/>
<path d="M13.4937 29.9238L11.1655 18.9675H14.8968L19.0249 19.061L16.7437 29.9238H13.4937Z" fill="#BEB2C3"/>
<path d="M13.4937 29.9238L11.1655 18.9675H14.8968L19.0249 19.061L16.7437 29.9238H13.4937Z" fill="url(#paint16_linear_151_4332)"/>
<path d="M13.4937 29.9238L11.1655 18.9675H14.8968L19.0249 19.061L16.7437 29.9238H13.4937Z" fill="url(#paint17_radial_151_4332)"/>
<path d="M13.4937 29.9238L11.1655 18.9675H14.8968L19.0249 19.061L16.7437 29.9238H13.4937Z" fill="url(#paint18_radial_151_4332)"/>
<g filter="url(#filter1_f_151_4332)">
<path d="M11.7012 19.6663L12.3913 22.8813C12.4916 23.3191 12.669 23.6272 12.7973 23.7502C12.9257 23.8732 13.1226 23.7613 13.2051 23.69L14.8744 22.1737L16.5437 23.69C16.6262 23.7613 16.8231 23.8732 16.9515 23.7502C17.0798 23.6272 17.2506 23.3358 17.3508 22.898L18.0476 19.6663H16.4635L14.8732 21.7823L13.2853 19.6663H11.7012Z" fill="#927D95"/>
</g>
<path d="M7.02325 29.9205H2.72705C2.94104 26.4998 4.56482 23.4618 7.02325 21.3826V29.9205Z" fill="url(#paint19_radial_151_4332)"/>
<path d="M7.02325 29.9205H2.72705C2.94104 26.4998 4.56482 23.4618 7.02325 21.3826V29.9205Z" fill="url(#paint20_radial_151_4332)"/>
<path d="M7.02325 29.9205H2.72705C2.94104 26.4998 4.56482 23.4618 7.02325 21.3826V29.9205Z" fill="url(#paint21_radial_151_4332)"/>
<path d="M22.7267 29.9205H27.0229C26.809 26.4998 25.1852 23.4618 22.7267 21.3826V29.9205Z" fill="url(#paint22_radial_151_4332)"/>
<path d="M22.7267 29.9205H27.0229C26.809 26.4998 25.1852 23.4618 22.7267 21.3826V29.9205Z" fill="url(#paint23_radial_151_4332)"/>
<g filter="url(#filter2_i_151_4332)">
<path d="M14.0981 24.3476L13.4058 23.0144L14.8589 21.6628L16.312 23.0144L15.6503 24.3453C15.6249 24.3962 15.5729 24.4285 15.516 24.4285H14.2313C14.1753 24.4285 14.1239 24.3973 14.0981 24.3476Z" fill="url(#paint24_radial_151_4332)"/>
</g>
<path d="M13.2886 29.9207L14.1424 24.5129C14.1501 24.4643 14.192 24.4285 14.2412 24.4285H15.4879C15.5373 24.4285 15.5792 24.4645 15.5867 24.5134L16.4136 29.9207H13.2886Z" fill="url(#paint25_radial_151_4332)"/>
<path d="M13.2886 29.9207L14.1424 24.5129C14.1501 24.4643 14.192 24.4285 14.2412 24.4285H15.4879C15.5373 24.4285 15.5792 24.4645 15.5867 24.5134L16.4136 29.9207H13.2886Z" fill="url(#paint26_linear_151_4332)"/>
<path d="M13.2886 29.9207L14.1424 24.5129C14.1501 24.4643 14.192 24.4285 14.2412 24.4285H15.4879C15.5373 24.4285 15.5792 24.4645 15.5867 24.5134L16.4136 29.9207H13.2886Z" fill="url(#paint27_linear_151_4332)"/>
<path d="M11.9722 22.7253L11.1655 18.9675L13.1917 18.3425L14.8843 21.4558V21.8894L12.9233 23.6707C12.827 23.754 12.5968 23.8847 12.4468 23.741C12.2968 23.5972 12.0894 23.2371 11.9722 22.7253Z" fill="url(#paint28_radial_151_4332)"/>
<path d="M11.9722 22.7253L11.1655 18.9675L13.1917 18.3425L14.8843 21.4558V21.8894L12.9233 23.6707C12.827 23.754 12.5968 23.8847 12.4468 23.741C12.2968 23.5972 12.0894 23.2371 11.9722 22.7253Z" fill="url(#paint29_linear_151_4332)"/>
<path d="M11.9722 22.7253L11.1655 18.9675L13.1917 18.3425L14.8843 21.4558V21.8894L12.9233 23.6707C12.827 23.754 12.5968 23.8847 12.4468 23.741C12.2968 23.5972 12.0894 23.2371 11.9722 22.7253Z" fill="url(#paint30_radial_151_4332)"/>
<path d="M11.9722 22.7253L11.1655 18.9675L13.1917 18.3425L14.8843 21.4558V21.8894L12.9233 23.6707C12.827 23.754 12.5968 23.8847 12.4468 23.741C12.2968 23.5972 12.0894 23.2371 11.9722 22.7253Z" fill="url(#paint31_radial_151_4332)"/>
<path d="M11.9722 22.7253L11.1655 18.9675L13.1917 18.3425L14.8843 21.4558V21.8894L12.9233 23.6707C12.827 23.754 12.5968 23.8847 12.4468 23.741C12.2968 23.5972 12.0894 23.2371 11.9722 22.7253Z" fill="url(#paint32_radial_151_4332)"/>
<path d="M17.769 22.7449L18.5835 18.9675H16.7319L14.8647 21.4519V21.8894L16.8257 23.6707C16.922 23.754 17.1522 23.8847 17.3022 23.741C17.4522 23.5972 17.6519 23.2566 17.769 22.7449Z" fill="#F7A936"/>
<path d="M17.769 22.7449L18.5835 18.9675L16.8257 18.3894L14.8647 21.4519V21.8894L16.8257 23.6707C16.922 23.754 17.1522 23.8847 17.3022 23.741C17.4522 23.5972 17.6519 23.2566 17.769 22.7449Z" fill="url(#paint33_radial_151_4332)"/>
<path d="M17.769 22.7449L18.5835 18.9675L16.8257 18.3894L14.8647 21.4519V21.8894L16.8257 23.6707C16.922 23.754 17.1522 23.8847 17.3022 23.741C17.4522 23.5972 17.6519 23.2566 17.769 22.7449Z" fill="url(#paint34_linear_151_4332)"/>
<path d="M17.769 22.7449L18.5835 18.9675L16.8257 18.3894L14.8647 21.4519V21.8894L16.8257 23.6707C16.922 23.754 17.1522 23.8847 17.3022 23.741C17.4522 23.5972 17.6519 23.2566 17.769 22.7449Z" fill="url(#paint35_radial_151_4332)"/>
<path d="M17.769 22.7449L18.5835 18.9675L16.8257 18.3894L14.8647 21.4519V21.8894L16.8257 23.6707C16.922 23.754 17.1522 23.8847 17.3022 23.741C17.4522 23.5972 17.6519 23.2566 17.769 22.7449Z" fill="url(#paint36_radial_151_4332)"/>
<path d="M17.769 22.7449L18.5835 18.9675L16.8257 18.3894L14.8647 21.4519V21.8894L16.8257 23.6707C16.922 23.754 17.1522 23.8847 17.3022 23.741C17.4522 23.5972 17.6519 23.2566 17.769 22.7449Z" fill="url(#paint37_radial_151_4332)"/>
<g filter="url(#filter3_i_151_4332)">
<path d="M10.7498 16.9752L13.492 29.9205H11.6951C10.294 27.5872 7.40756 22.7736 7.07006 22.1861C6.64819 21.4517 6.85131 21.2799 6.92944 21.1549C7.00756 21.0299 7.30444 20.7955 7.60131 20.6861C7.83881 20.5986 7.92944 20.483 7.94506 20.4361C8.00235 20.3684 8.01381 20.1361 7.60131 19.7486C7.18881 19.3611 6.29403 18.6809 5.8982 18.3892C5.66383 18.2017 5.24657 17.7798 5.29657 17.4048C5.34657 17.0298 5.94767 16.9699 6.06225 16.9752H10.7498Z" fill="url(#paint38_linear_151_4332)"/>
<path d="M10.7498 16.9752L13.492 29.9205H11.6951C10.294 27.5872 7.40756 22.7736 7.07006 22.1861C6.64819 21.4517 6.85131 21.2799 6.92944 21.1549C7.00756 21.0299 7.30444 20.7955 7.60131 20.6861C7.83881 20.5986 7.92944 20.483 7.94506 20.4361C8.00235 20.3684 8.01381 20.1361 7.60131 19.7486C7.18881 19.3611 6.29403 18.6809 5.8982 18.3892C5.66383 18.2017 5.24657 17.7798 5.29657 17.4048C5.34657 17.0298 5.94767 16.9699 6.06225 16.9752H10.7498Z" fill="url(#paint39_linear_151_4332)"/>
<path d="M10.7498 16.9752L13.492 29.9205H11.6951C10.294 27.5872 7.40756 22.7736 7.07006 22.1861C6.64819 21.4517 6.85131 21.2799 6.92944 21.1549C7.00756 21.0299 7.30444 20.7955 7.60131 20.6861C7.83881 20.5986 7.92944 20.483 7.94506 20.4361C8.00235 20.3684 8.01381 20.1361 7.60131 19.7486C7.18881 19.3611 6.29403 18.6809 5.8982 18.3892C5.66383 18.2017 5.24657 17.7798 5.29657 17.4048C5.34657 17.0298 5.94767 16.9699 6.06225 16.9752H10.7498Z" fill="url(#paint40_radial_151_4332)"/>
<path d="M10.7498 16.9752L13.492 29.9205H11.6951C10.294 27.5872 7.40756 22.7736 7.07006 22.1861C6.64819 21.4517 6.85131 21.2799 6.92944 21.1549C7.00756 21.0299 7.30444 20.7955 7.60131 20.6861C7.83881 20.5986 7.92944 20.483 7.94506 20.4361C8.00235 20.3684 8.01381 20.1361 7.60131 19.7486C7.18881 19.3611 6.29403 18.6809 5.8982 18.3892C5.66383 18.2017 5.24657 17.7798 5.29657 17.4048C5.34657 17.0298 5.94767 16.9699 6.06225 16.9752H10.7498Z" fill="url(#paint41_linear_151_4332)"/>
<path d="M10.7498 16.9752L13.492 29.9205H11.6951C10.294 27.5872 7.40756 22.7736 7.07006 22.1861C6.64819 21.4517 6.85131 21.2799 6.92944 21.1549C7.00756 21.0299 7.30444 20.7955 7.60131 20.6861C7.83881 20.5986 7.92944 20.483 7.94506 20.4361C8.00235 20.3684 8.01381 20.1361 7.60131 19.7486C7.18881 19.3611 6.29403 18.6809 5.8982 18.3892C5.66383 18.2017 5.24657 17.7798 5.29657 17.4048C5.34657 17.0298 5.94767 16.9699 6.06225 16.9752H10.7498Z" fill="url(#paint42_radial_151_4332)"/>
</g>
<g filter="url(#filter4_i_151_4332)">
<path d="M18.9954 16.9752L16.2532 29.9205H18.0501C19.4511 27.5872 22.3376 22.7736 22.6751 22.1861C23.0969 21.4517 22.8938 21.2799 22.8157 21.1549C22.7376 21.0299 22.4407 20.7955 22.1438 20.6861C21.9063 20.5986 21.8157 20.483 21.8001 20.4361C21.7428 20.3684 21.7313 20.1361 22.1438 19.7486C22.5563 19.3611 23.4511 18.6809 23.8469 18.3892C24.0813 18.2017 24.4985 17.7798 24.4485 17.4048C24.3985 17.0298 23.7975 16.9699 23.6829 16.9752H18.9954Z" fill="url(#paint43_linear_151_4332)"/>
<path d="M18.9954 16.9752L16.2532 29.9205H18.0501C19.4511 27.5872 22.3376 22.7736 22.6751 22.1861C23.0969 21.4517 22.8938 21.2799 22.8157 21.1549C22.7376 21.0299 22.4407 20.7955 22.1438 20.6861C21.9063 20.5986 21.8157 20.483 21.8001 20.4361C21.7428 20.3684 21.7313 20.1361 22.1438 19.7486C22.5563 19.3611 23.4511 18.6809 23.8469 18.3892C24.0813 18.2017 24.4985 17.7798 24.4485 17.4048C24.3985 17.0298 23.7975 16.9699 23.6829 16.9752H18.9954Z" fill="url(#paint44_linear_151_4332)"/>
<path d="M18.9954 16.9752L16.2532 29.9205H18.0501C19.4511 27.5872 22.3376 22.7736 22.6751 22.1861C23.0969 21.4517 22.8938 21.2799 22.8157 21.1549C22.7376 21.0299 22.4407 20.7955 22.1438 20.6861C21.9063 20.5986 21.8157 20.483 21.8001 20.4361C21.7428 20.3684 21.7313 20.1361 22.1438 19.7486C22.5563 19.3611 23.4511 18.6809 23.8469 18.3892C24.0813 18.2017 24.4985 17.7798 24.4485 17.4048C24.3985 17.0298 23.7975 16.9699 23.6829 16.9752H18.9954Z" fill="url(#paint45_radial_151_4332)"/>
<path d="M18.9954 16.9752L16.2532 29.9205H18.0501C19.4511 27.5872 22.3376 22.7736 22.6751 22.1861C23.0969 21.4517 22.8938 21.2799 22.8157 21.1549C22.7376 21.0299 22.4407 20.7955 22.1438 20.6861C21.9063 20.5986 21.8157 20.483 21.8001 20.4361C21.7428 20.3684 21.7313 20.1361 22.1438 19.7486C22.5563 19.3611 23.4511 18.6809 23.8469 18.3892C24.0813 18.2017 24.4985 17.7798 24.4485 17.4048C24.3985 17.0298 23.7975 16.9699 23.6829 16.9752H18.9954Z" fill="url(#paint46_radial_151_4332)"/>
</g>
<g filter="url(#filter5_i_151_4332)">
<path d="M27.2027 22.3269C27.7833 22.3269 28.2584 22.802 28.2584 23.3826V25.8002H26.147V23.3826C26.1575 22.802 26.622 22.3269 27.2027 22.3269Z" fill="url(#paint47_radial_151_4332)"/>
<path d="M27.2027 22.3269C27.7833 22.3269 28.2584 22.802 28.2584 23.3826V25.8002H26.147V23.3826C26.1575 22.802 26.622 22.3269 27.2027 22.3269Z" fill="url(#paint48_radial_151_4332)"/>
</g>
<rect x="24.4087" y="20.2253" width="2.57248" height="5.4375" rx="1.28624" fill="url(#paint49_linear_151_4332)"/>
<rect x="24.4087" y="20.2253" width="2.57248" height="5.4375" rx="1.28624" fill="url(#paint50_linear_151_4332)"/>
<rect x="24.4087" y="20.2253" width="2.57248" height="5.4375" rx="1.28624" fill="url(#paint51_radial_151_4332)"/>
<rect x="24.4087" y="20.2253" width="2.57248" height="5.4375" rx="1.28624" fill="url(#paint52_radial_151_4332)"/>
<g filter="url(#filter6_f_151_4332)">
<circle cx="25.6948" cy="17.0925" r="3.07812" fill="#3E2657"/>
</g>
<circle cx="25.6948" cy="17.0925" r="2.98438" fill="url(#paint53_radial_151_4332)"/>
<circle cx="25.6948" cy="17.0925" r="2.98438" fill="url(#paint54_radial_151_4332)"/>
<g filter="url(#filter7_i_151_4332)">
<path fill-rule="evenodd" clip-rule="evenodd" d="M25.6948 20.6707C27.671 20.6707 29.2729 19.0687 29.2729 17.0925C29.2729 15.1164 27.671 13.5144 25.6948 13.5144C23.7187 13.5144 22.1167 15.1164 22.1167 17.0925C22.1167 19.0687 23.7187 20.6707 25.6948 20.6707ZM25.6948 20.0769C27.343 20.0769 28.6792 18.7408 28.6792 17.0925C28.6792 15.4443 27.343 14.1082 25.6948 14.1082C24.0466 14.1082 22.7104 15.4443 22.7104 17.0925C22.7104 18.7408 24.0466 20.0769 25.6948 20.0769Z" fill="url(#paint55_linear_151_4332)"/>
</g>
<rect x="25.5122" y="15.9758" width="1.76937" height="2.2053" rx="0.884683" transform="rotate(-30 25.5122 15.9758)" fill="url(#paint56_radial_151_4332)"/>
<g filter="url(#filter8_i_151_4332)">
<path d="M23.1313 24.8177C23.1313 24.3797 23.4865 24.0188 23.9245 24.0188H26.9482C27.6717 24.0188 28.2582 24.6053 28.2582 25.3288V28.829C28.2582 29.4319 27.7694 29.9206 27.1665 29.9206H23.9245C23.4865 29.9206 23.1313 29.5597 23.1313 29.1217C23.1313 28.8087 23.3127 28.5351 23.576 28.4044C23.3127 28.2737 23.1313 28 23.1313 27.687C23.1313 27.374 23.3127 27.1004 23.576 26.9697C23.3127 26.839 23.1313 26.5654 23.1313 26.2524C23.1313 25.9394 23.3127 25.6658 23.576 25.5351C23.3127 25.4044 23.1313 25.1307 23.1313 24.8177Z" fill="url(#paint57_linear_151_4332)"/>
<path d="M23.1313 24.8177C23.1313 24.3797 23.4865 24.0188 23.9245 24.0188H26.9482C27.6717 24.0188 28.2582 24.6053 28.2582 25.3288V28.829C28.2582 29.4319 27.7694 29.9206 27.1665 29.9206H23.9245C23.4865 29.9206 23.1313 29.5597 23.1313 29.1217C23.1313 28.8087 23.3127 28.5351 23.576 28.4044C23.3127 28.2737 23.1313 28 23.1313 27.687C23.1313 27.374 23.3127 27.1004 23.576 26.9697C23.3127 26.839 23.1313 26.5654 23.1313 26.2524C23.1313 25.9394 23.3127 25.6658 23.576 25.5351C23.3127 25.4044 23.1313 25.1307 23.1313 24.8177Z" fill="url(#paint58_radial_151_4332)"/>
<path d="M23.1313 24.8177C23.1313 24.3797 23.4865 24.0188 23.9245 24.0188H26.9482C27.6717 24.0188 28.2582 24.6053 28.2582 25.3288V28.829C28.2582 29.4319 27.7694 29.9206 27.1665 29.9206H23.9245C23.4865 29.9206 23.1313 29.5597 23.1313 29.1217C23.1313 28.8087 23.3127 28.5351 23.576 28.4044C23.3127 28.2737 23.1313 28 23.1313 27.687C23.1313 27.374 23.3127 27.1004 23.576 26.9697C23.3127 26.839 23.1313 26.5654 23.1313 26.2524C23.1313 25.9394 23.3127 25.6658 23.576 25.5351C23.3127 25.4044 23.1313 25.1307 23.1313 24.8177Z" fill="url(#paint59_radial_151_4332)"/>
<path d="M23.1313 24.8177C23.1313 24.3797 23.4865 24.0188 23.9245 24.0188H26.9482C27.6717 24.0188 28.2582 24.6053 28.2582 25.3288V28.829C28.2582 29.4319 27.7694 29.9206 27.1665 29.9206H23.9245C23.4865 29.9206 23.1313 29.5597 23.1313 29.1217C23.1313 28.8087 23.3127 28.5351 23.576 28.4044C23.3127 28.2737 23.1313 28 23.1313 27.687C23.1313 27.374 23.3127 27.1004 23.576 26.9697C23.3127 26.839 23.1313 26.5654 23.1313 26.2524C23.1313 25.9394 23.3127 25.6658 23.576 25.5351C23.3127 25.4044 23.1313 25.1307 23.1313 24.8177Z" fill="url(#paint60_radial_151_4332)"/>
<path d="M23.1313 24.8177C23.1313 24.3797 23.4865 24.0188 23.9245 24.0188H26.9482C27.6717 24.0188 28.2582 24.6053 28.2582 25.3288V28.829C28.2582 29.4319 27.7694 29.9206 27.1665 29.9206H23.9245C23.4865 29.9206 23.1313 29.5597 23.1313 29.1217C23.1313 28.8087 23.3127 28.5351 23.576 28.4044C23.3127 28.2737 23.1313 28 23.1313 27.687C23.1313 27.374 23.3127 27.1004 23.576 26.9697C23.3127 26.839 23.1313 26.5654 23.1313 26.2524C23.1313 25.9394 23.3127 25.6658 23.576 25.5351C23.3127 25.4044 23.1313 25.1307 23.1313 24.8177Z" fill="url(#paint61_radial_151_4332)"/>
</g>
<g filter="url(#filter9_f_151_4332)">
<path d="M23.6992 25.53H25.6608" stroke="url(#paint62_linear_151_4332)" stroke-width="0.05" stroke-linecap="round"/>
</g>
<g filter="url(#filter10_f_151_4332)">
<path d="M23.6138 26.9539H25.5754" stroke="url(#paint63_linear_151_4332)" stroke-width="0.05" stroke-linecap="round"/>
</g>
<g filter="url(#filter11_f_151_4332)">
<path d="M23.6992 28.3782H25.6608" stroke="url(#paint64_linear_151_4332)" stroke-width="0.05" stroke-linecap="round"/>
</g>
<path d="M12.6577 18.7288V19.3817C12.6577 20.042 12.8484 20.7831 14.8514 21.6561C16.8543 20.7831 17.045 20.042 17.045 19.3817V18.7288H12.6577Z" fill="url(#paint65_radial_151_4332)"/>
<path d="M12.6577 18.7288V19.3817C12.6577 20.042 12.8484 20.7831 14.8514 21.6561C16.8543 20.7831 17.045 20.042 17.045 19.3817V18.7288H12.6577Z" fill="url(#paint66_radial_151_4332)"/>
<g filter="url(#filter12_i_151_4332)">
<path d="M9.50144 14.8093C10.5159 14.8093 11.3383 13.9869 11.3383 12.9724C11.3383 11.9579 10.5159 11.1355 9.50144 11.1355C8.48695 11.1355 7.66455 11.9579 7.66455 12.9724C7.66455 13.9869 8.48695 14.8093 9.50144 14.8093Z" fill="url(#paint67_linear_151_4332)"/>
</g>
<g filter="url(#filter13_i_151_4332)">
<path d="M20.3618 14.8088C21.3763 14.8088 22.1987 13.9864 22.1987 12.9719C22.1987 11.9574 21.3763 11.135 20.3618 11.135C19.3473 11.135 18.5249 11.9574 18.5249 12.9719C18.5249 13.9864 19.3473 14.8088 20.3618 14.8088Z" fill="url(#paint68_radial_151_4332)"/>
</g>
<g filter="url(#filter14_f_151_4332)">
<path d="M20.3619 14.1982C21.0391 14.1982 21.5881 13.6492 21.5881 12.972C21.5881 12.2948 21.0391 11.7458 20.3619 11.7458C19.6847 11.7458 19.1357 12.2948 19.1357 12.972C19.1357 13.6492 19.6847 14.1982 20.3619 14.1982Z" fill="#FFCA38"/>
<path d="M20.3619 14.1982C21.0391 14.1982 21.5881 13.6492 21.5881 12.972C21.5881 12.2948 21.0391 11.7458 20.3619 11.7458C19.6847 11.7458 19.1357 12.2948 19.1357 12.972C19.1357 13.6492 19.6847 14.1982 20.3619 14.1982Z" fill="url(#paint69_radial_151_4332)"/>
</g>
<g filter="url(#filter15_f_151_4332)">
<path d="M9.52403 14.1982C10.2012 14.1982 10.7502 13.6492 10.7502 12.972C10.7502 12.2948 10.2012 11.7458 9.52403 11.7458C8.84683 11.7458 8.29785 12.2948 8.29785 12.972C8.29785 13.6492 8.84683 14.1982 9.52403 14.1982Z" fill="#E28527"/>
<path d="M9.52403 14.1982C10.2012 14.1982 10.7502 13.6492 10.7502 12.972C10.7502 12.2948 10.2012 11.7458 9.52403 11.7458C8.84683 11.7458 8.29785 12.2948 8.29785 12.972C8.29785 13.6492 8.84683 14.1982 9.52403 14.1982Z" fill="url(#paint70_radial_151_4332)"/>
</g>
<g filter="url(#filter16_i_151_4332)">
<path d="M9.04403 11.2106H9.05808L9.04637 10.9078L9.03467 10.5584C9.05808 9.47514 9.69024 9.05583 9.95949 8.91606C9.97705 8.91024 9.99754 8.9015 10.018 8.89277C10.0385 8.88403 10.059 8.8753 10.0766 8.86947C10.6853 8.58994 11.177 8.10074 11.4345 7.46013L11.5282 7.23883C11.6218 7.01753 11.9145 6.98259 12.055 7.18059C12.8744 8.38028 14.2441 9.09078 15.6957 9.09078H19.3716C19.5772 9.09078 20.607 9.19052 20.6683 10.6116L20.5327 14.1197C20.392 17.319 17.8936 19.4672 14.844 19.4672C11.7944 19.4672 9.29601 17.319 9.15526 14.1197L9.04403 11.2106Z" fill="url(#paint71_radial_151_4332)"/>
</g>
<path d="M9.04403 11.2106H9.05808L9.04637 10.9078L9.03467 10.5584C9.05808 9.47514 9.69024 9.05583 9.95949 8.91606C9.97705 8.91024 9.99754 8.9015 10.018 8.89277C10.0385 8.88403 10.059 8.8753 10.0766 8.86947C10.6853 8.58994 11.177 8.10074 11.4345 7.46013L11.5282 7.23883C11.6218 7.01753 11.9145 6.98259 12.055 7.18059C12.8744 8.38028 14.2441 9.09078 15.6957 9.09078H19.3716C19.5772 9.09078 20.607 9.19052 20.6683 10.6116L20.5327 14.1197C20.392 17.319 17.8936 19.4672 14.844 19.4672C11.7944 19.4672 9.29601 17.319 9.15526 14.1197L9.04403 11.2106Z" fill="url(#paint72_radial_151_4332)"/>
<path d="M9.04403 11.2106H9.05808L9.04637 10.9078L9.03467 10.5584C9.05808 9.47514 9.69024 9.05583 9.95949 8.91606C9.97705 8.91024 9.99754 8.9015 10.018 8.89277C10.0385 8.88403 10.059 8.8753 10.0766 8.86947C10.6853 8.58994 11.177 8.10074 11.4345 7.46013L11.5282 7.23883C11.6218 7.01753 11.9145 6.98259 12.055 7.18059C12.8744 8.38028 14.2441 9.09078 15.6957 9.09078H19.3716C19.5772 9.09078 20.607 9.19052 20.6683 10.6116L20.5327 14.1197C20.392 17.319 17.8936 19.4672 14.844 19.4672C11.7944 19.4672 9.29601 17.319 9.15526 14.1197L9.04403 11.2106Z" fill="url(#paint73_radial_151_4332)"/>
<g filter="url(#filter17_f_151_4332)">
<path d="M14.4029 12.5414L13.6226 14.4821C13.4988 14.8813 13.7959 15.2805 14.2169 15.2805H15.1146C15.5356 15.2805 15.8328 14.8751 15.7089 14.4821L15.1022 12.5414C14.9722 12.1115 14.5391 12.1115 14.4029 12.5414Z" fill="#EB8B2A"/>
</g>
<g filter="url(#filter18_if_151_4332)">
<path d="M14.4148 12.3832L13.8081 14.3239C13.6843 14.7231 13.9815 15.1223 14.4025 15.1223H15.3001C15.7211 15.1223 16.0183 14.7169 15.8945 14.3239L15.2878 12.3832C15.1578 11.9533 14.551 11.9533 14.4148 12.3832Z" fill="#EC971C"/>
<path d="M14.4148 12.3832L13.8081 14.3239C13.6843 14.7231 13.9815 15.1223 14.4025 15.1223H15.3001C15.7211 15.1223 16.0183 14.7169 15.8945 14.3239L15.2878 12.3832C15.1578 11.9533 14.551 11.9533 14.4148 12.3832Z" fill="url(#paint74_radial_151_4332)"/>
</g>
<g filter="url(#filter19_f_151_4332)">
<path d="M14.4148 12.2318L13.8081 14.1725C13.6843 14.5717 13.9815 14.9709 14.4025 14.9709H15.3001C15.7211 14.9709 16.0183 14.5656 15.8945 14.1725L15.2878 12.2318C15.1578 11.8019 14.551 11.8019 14.4148 12.2318Z" fill="url(#paint75_linear_151_4332)"/>
</g>
<g filter="url(#filter20_f_151_4332)">
<path d="M14.8511 16.3471C14.2567 16.3471 13.6979 16.204 13.2283 15.9536C13.0678 15.8702 12.8954 16.055 12.9964 16.204C13.3888 16.8122 14.0724 17.2176 14.8511 17.2176C15.6299 17.2176 16.3135 16.8122 16.7058 16.204C16.8069 16.049 16.6345 15.8702 16.474 15.9536C16.0044 16.204 15.4515 16.3471 14.8511 16.3471Z" stroke="url(#paint76_linear_151_4332)" stroke-width="0.2"/>
</g>
<path d="M14.8511 16.3471C14.2567 16.3471 13.6979 16.204 13.2283 15.9536C13.0678 15.8702 12.8954 16.055 12.9964 16.204C13.3888 16.8122 14.0724 17.2176 14.8511 17.2176C15.6299 17.2176 16.3135 16.8122 16.7058 16.204C16.8069 16.049 16.6345 15.8702 16.474 15.9536C16.0044 16.204 15.4515 16.3471 14.8511 16.3471Z" fill="#8A004F"/>
<g filter="url(#filter21_i_151_4332)">
<path d="M16.155 12.2021C16.458 11.6692 16.9186 11.2483 17.91 11.2483C18.3441 11.2483 18.7627 11.3686 19.1347 11.6692C19.4416 11.9172 19.4005 12.2345 19.1629 12.3533L18.5281 12.7157C17.784 12.4752 16.9612 12.4426 16.155 12.2021Z" fill="#291720"/>
</g>
<g filter="url(#filter22_i_151_4332)">
<path d="M13.5476 12.2021C13.2446 11.6692 12.784 11.2483 11.7926 11.2483C11.3585 11.2483 10.94 11.3686 10.5679 11.6692C10.261 11.9172 10.3021 12.2345 10.5398 12.3533L11.1745 12.7157C11.9187 12.4752 12.7415 12.4426 13.5476 12.2021Z" fill="#291720"/>
</g>
<path d="M17.581 11.3152C18.3266 11.3152 18.9564 11.8292 19.1277 12.5238C19.1786 12.723 19.0258 12.9128 18.8221 12.9128H16.2751C16.113 12.9128 15.9833 12.7647 16.0157 12.6026C16.1593 11.8709 16.803 11.3152 17.581 11.3152Z" fill="white"/>
<path d="M17.3442 11.6252C17.909 11.6252 18.3626 12.0835 18.3626 12.6436C18.3626 12.7361 18.3487 12.8287 18.3255 12.912H16.3583C16.3352 12.8241 16.3213 12.7361 16.3213 12.6436C16.3213 12.0835 16.7795 11.6252 17.3442 11.6252Z" fill="url(#paint77_radial_151_4332)"/>
<path d="M16.7607 12.644C16.7607 12.32 17.02 12.0608 17.344 12.0608C17.668 12.0608 17.9272 12.32 17.9272 12.644C17.9272 12.7412 17.904 12.8338 17.8624 12.9125H16.8302C16.7839 12.8338 16.7607 12.7412 16.7607 12.644Z" fill="black"/>
<g filter="url(#filter23_f_151_4332)">
<path d="M17.2684 11.8412C17.3409 11.9381 17.1893 12.0563 17.017 12.1851C16.8448 12.3139 16.7169 12.4046 16.6444 12.3076C16.572 12.2107 16.6529 12.0277 16.8251 11.8988C16.9974 11.77 17.1959 11.7442 17.2684 11.8412Z" fill="#C7A7A3"/>
<path d="M17.2684 11.8412C17.3409 11.9381 17.1893 12.0563 17.017 12.1851C16.8448 12.3139 16.7169 12.4046 16.6444 12.3076C16.572 12.2107 16.6529 12.0277 16.8251 11.8988C16.9974 11.77 17.1959 11.7442 17.2684 11.8412Z" fill="url(#paint78_radial_151_4332)"/>
</g>
<g filter="url(#filter24_f_151_4332)">
<path d="M18.2516 12.5094C18.214 12.2462 18.06 12.0479 17.9878 11.9817L17.6914 12.307L17.8251 12.5672L18.2516 12.5094Z" fill="url(#paint79_linear_151_4332)"/>
</g>
<path d="M12.1215 11.3152C11.376 11.3152 10.7462 11.8292 10.5748 12.5239C10.5239 12.723 10.6767 12.9128 10.8805 12.9128H13.4275C13.5895 12.9128 13.7192 12.7647 13.6868 12.6026C13.5432 11.8709 12.8949 11.3152 12.1215 11.3152Z" fill="white"/>
<path d="M12.3577 11.6252C11.793 11.6252 11.3394 12.0835 11.3394 12.6436C11.3394 12.7362 11.3532 12.8287 11.3764 12.9121H13.3436C13.3668 12.8241 13.3807 12.7362 13.3807 12.6436C13.376 12.0835 12.9224 11.6252 12.3577 11.6252Z" fill="url(#paint80_radial_151_4332)"/>
<path d="M12.9409 12.644C12.9409 12.32 12.6817 12.0608 12.3576 12.0608C12.0336 12.0608 11.7744 12.32 11.7744 12.644C11.7744 12.7412 11.7976 12.8338 11.8392 12.9125H12.8714C12.9131 12.8338 12.9409 12.7412 12.9409 12.644Z" fill="black"/>
<g filter="url(#filter25_f_151_4332)">
<path d="M13.2881 12.5237C13.2881 12.1949 13.0207 11.9757 12.9484 11.9094L12.6196 12.2274L12.822 12.6393L13.2881 12.5237Z" fill="url(#paint81_linear_151_4332)"/>
</g>
<g filter="url(#filter26_f_151_4332)">
<ellipse cx="12.0497" cy="12.0606" rx="0.444044" ry="0.224526" transform="rotate(-27.914 12.0497 12.0606)" fill="#C7A7A3" fill-opacity="0.9"/>
<ellipse cx="12.0497" cy="12.0606" rx="0.444044" ry="0.224526" transform="rotate(-27.914 12.0497 12.0606)" fill="url(#paint82_radial_151_4332)"/>
</g>
<g filter="url(#filter27_i_151_4332)">
<path d="M8.80361 5.74133C8.78113 5.80623 8.82937 5.87389 8.89805 5.87389H20.8174C20.8861 5.87389 20.9344 5.80608 20.9118 5.74112C20.6814 5.0785 20.4499 4.42325 20.2732 3.95202C19.8045 2.70201 18.6365 2.07701 17.9763 2.07701C17.2415 2.06039 16.7172 2.39454 16.326 2.64386C16.2576 2.68744 16.1932 2.72845 16.1326 2.76451C15.5545 3.10826 15.324 3.16295 14.8552 3.16295C14.4841 3.16295 14.0935 3.01451 13.6716 2.79576C13.5984 2.75777 13.5158 2.70858 13.4241 2.65397C12.9879 2.39415 12.3456 2.01159 11.5193 2.12779C10.563 2.26226 9.85914 3.05748 9.42164 4.07311C9.26383 4.43945 9.03605 5.07025 8.80361 5.74133Z" fill="url(#paint83_radial_151_4332)"/>
</g>
<path d="M8.80361 5.74133C8.78113 5.80623 8.82937 5.87389 8.89805 5.87389H20.8174C20.8861 5.87389 20.9344 5.80608 20.9118 5.74112C20.6814 5.0785 20.4499 4.42325 20.2732 3.95202C19.8045 2.70201 18.6365 2.07701 17.9763 2.07701C17.2415 2.06039 16.7172 2.39454 16.326 2.64386C16.2576 2.68744 16.1932 2.72845 16.1326 2.76451C15.5545 3.10826 15.324 3.16295 14.8552 3.16295C14.4841 3.16295 14.0935 3.01451 13.6716 2.79576C13.5984 2.75777 13.5158 2.70858 13.4241 2.65397C12.9879 2.39415 12.3456 2.01159 11.5193 2.12779C10.563 2.26226 9.85914 3.05748 9.42164 4.07311C9.26383 4.43945 9.03605 5.07025 8.80361 5.74133Z" fill="url(#paint84_radial_151_4332)"/>
<path d="M8.80361 5.74133C8.78113 5.80623 8.82937 5.87389 8.89805 5.87389H20.8174C20.8861 5.87389 20.9344 5.80608 20.9118 5.74112C20.6814 5.0785 20.4499 4.42325 20.2732 3.95202C19.8045 2.70201 18.6365 2.07701 17.9763 2.07701C17.2415 2.06039 16.7172 2.39454 16.326 2.64386C16.2576 2.68744 16.1932 2.72845 16.1326 2.76451C15.5545 3.10826 15.324 3.16295 14.8552 3.16295C14.4841 3.16295 14.0935 3.01451 13.6716 2.79576C13.5984 2.75777 13.5158 2.70858 13.4241 2.65397C12.9879 2.39415 12.3456 2.01159 11.5193 2.12779C10.563 2.26226 9.85914 3.05748 9.42164 4.07311C9.26383 4.43945 9.03605 5.07025 8.80361 5.74133Z" fill="url(#paint85_radial_151_4332)"/>
<g filter="url(#filter28_ii_151_4332)">
<path d="M6.38604 7.87775C6.12562 7.86213 5.39466 7.91213 5.06966 8.23713C4.71249 8.59456 5.01503 9.31064 5.57766 9.88947C6.11682 10.4442 7.91338 11.6278 10.7571 11.6278H18.9248C21.7984 11.6278 23.6139 10.4442 24.1587 9.88947C24.7272 9.31064 25.0329 8.59456 24.672 8.23713C24.3436 7.91213 23.605 7.86213 23.3418 7.87775H6.38604Z" fill="url(#paint86_linear_151_4332)"/>
</g>
<path d="M8.12534 7.74646C8.10368 7.81126 8.15208 7.87769 8.22044 7.87769H21.5075C21.5762 7.87769 21.6245 7.80995 21.6021 7.74497C21.5453 7.58044 21.4804 7.39139 21.4098 7.18598C21.2804 6.80917 21.1321 6.37734 20.9808 5.941C20.9669 5.90076 20.9289 5.87378 20.8863 5.87378H8.82874C8.78606 5.87378 8.74809 5.90085 8.73422 5.9412C8.54387 6.49486 8.35463 7.06067 8.20243 7.51593L8.12534 7.74646Z" fill="url(#paint87_radial_151_4332)"/>
<path d="M8.12534 7.74646C8.10368 7.81126 8.15208 7.87769 8.22044 7.87769H21.5075C21.5762 7.87769 21.6245 7.80995 21.6021 7.74497C21.5453 7.58044 21.4804 7.39139 21.4098 7.18598C21.2804 6.80917 21.1321 6.37734 20.9808 5.941C20.9669 5.90076 20.9289 5.87378 20.8863 5.87378H8.82874C8.78606 5.87378 8.74809 5.90085 8.73422 5.9412C8.54387 6.49486 8.35463 7.06067 8.20243 7.51593L8.12534 7.74646Z" fill="url(#paint88_linear_151_4332)"/>
<path d="M8.12534 7.74646C8.10368 7.81126 8.15208 7.87769 8.22044 7.87769H21.5075C21.5762 7.87769 21.6245 7.80995 21.6021 7.74497C21.5453 7.58044 21.4804 7.39139 21.4098 7.18598C21.2804 6.80917 21.1321 6.37734 20.9808 5.941C20.9669 5.90076 20.9289 5.87378 20.8863 5.87378H8.82874C8.78606 5.87378 8.74809 5.90085 8.73422 5.9412C8.54387 6.49486 8.35463 7.06067 8.20243 7.51593L8.12534 7.74646Z" fill="url(#paint89_linear_151_4332)"/>
<path d="M8.12534 7.74646C8.10368 7.81126 8.15208 7.87769 8.22044 7.87769H21.5075C21.5762 7.87769 21.6245 7.80995 21.6021 7.74497C21.5453 7.58044 21.4804 7.39139 21.4098 7.18598C21.2804 6.80917 21.1321 6.37734 20.9808 5.941C20.9669 5.90076 20.9289 5.87378 20.8863 5.87378H8.82874C8.78606 5.87378 8.74809 5.90085 8.73422 5.9412C8.54387 6.49486 8.35463 7.06067 8.20243 7.51593L8.12534 7.74646Z" fill="url(#paint90_linear_151_4332)"/>
<defs>
<filter id="filter0_i_151_4332" x="6.27881" y="3.71753" width="17.3945" height="16.343" filterUnits="userSpaceOnUse" color-interpolation-filters="sRGB">
<feFlood flood-opacity="0" result="BackgroundImageFix"/>
<feBlend mode="normal" in="SourceGraphic" in2="BackgroundImageFix" result="shape"/>
<feColorMatrix in="SourceAlpha" type="matrix" values="0 0 0 0 0 0 0 0 0 0 0 0 0 0 0 0 0 0 127 0" result="hardAlpha"/>
<feOffset dx="0.25" dy="-0.25"/>
<feGaussianBlur stdDeviation="0.375"/>
<feComposite in2="hardAlpha" operator="arithmetic" k2="-1" k3="1"/>
<feColorMatrix type="matrix" values="0 0 0 0 0.819608 0 0 0 0 0.411765 0 0 0 0 0.368627 0 0 0 1 0"/>
<feBlend mode="normal" in2="shape" result="effect1_innerShadow_151_4332"/>
</filter>
<filter id="filter1_f_151_4332" x="11.2012" y="19.1663" width="7.34668" height="5.13892" filterUnits="userSpaceOnUse" color-interpolation-filters="sRGB">
<feFlood flood-opacity="0" result="BackgroundImageFix"/>
<feBlend mode="normal" in="SourceGraphic" in2="BackgroundImageFix" result="shape"/>
<feGaussianBlur stdDeviation="0.25" result="effect1_foregroundBlur_151_4332"/>
</filter>
<filter id="filter2_i_151_4332" x="13.4058" y="21.4628" width="3.10625" height="2.96563" filterUnits="userSpaceOnUse" color-interpolation-filters="sRGB">
<feFlood flood-opacity="0" result="BackgroundImageFix"/>
<feBlend mode="normal" in="SourceGraphic" in2="BackgroundImageFix" result="shape"/>
<feColorMatrix in="SourceAlpha" type="matrix" values="0 0 0 0 0 0 0 0 0 0 0 0 0 0 0 0 0 0 127 0" result="hardAlpha"/>
<feOffset dx="0.2" dy="-0.2"/>
<feGaussianBlur stdDeviation="0.15"/>
<feComposite in2="hardAlpha" operator="arithmetic" k2="-1" k3="1"/>
<feColorMatrix type="matrix" values="0 0 0 0 0.698039 0 0 0 0 0.133333 0 0 0 0 0.262745 0 0 0 1 0"/>
<feBlend mode="normal" in2="shape" result="effect1_innerShadow_151_4332"/>
</filter>
<filter id="filter3_i_151_4332" x="5.29248" y="16.8749" width="8.29971" height="13.0456" filterUnits="userSpaceOnUse" color-interpolation-filters="sRGB">
<feFlood flood-opacity="0" result="BackgroundImageFix"/>
<feBlend mode="normal" in="SourceGraphic" in2="BackgroundImageFix" result="shape"/>
<feColorMatrix in="SourceAlpha" type="matrix" values="0 0 0 0 0 0 0 0 0 0 0 0 0 0 0 0 0 0 127 0" result="hardAlpha"/>
<feOffset dx="0.1" dy="-0.1"/>
<feGaussianBlur stdDeviation="0.15"/>
<feComposite in2="hardAlpha" operator="arithmetic" k2="-1" k3="1"/>
<feColorMatrix type="matrix" values="0 0 0 0 0.431373 0 0 0 0 0.396078 0 0 0 0 0.560784 0 0 0 1 0"/>
<feBlend mode="normal" in2="shape" result="effect1_innerShadow_151_4332"/>
</filter>
<filter id="filter4_i_151_4332" x="16.1529" y="16.8749" width="8.29971" height="13.0456" filterUnits="userSpaceOnUse" color-interpolation-filters="sRGB">
<feFlood flood-opacity="0" result="BackgroundImageFix"/>
<feBlend mode="normal" in="SourceGraphic" in2="BackgroundImageFix" result="shape"/>
<feColorMatrix in="SourceAlpha" type="matrix" values="0 0 0 0 0 0 0 0 0 0 0 0 0 0 0 0 0 0 127 0" result="hardAlpha"/>
<feOffset dx="-0.1" dy="-0.1"/>
<feGaussianBlur stdDeviation="0.1"/>
<feComposite in2="hardAlpha" operator="arithmetic" k2="-1" k3="1"/>
<feColorMatrix type="matrix" values="0 0 0 0 0.298039 0 0 0 0 0.215686 0 0 0 0 0.396078 0 0 0 1 0"/>
<feBlend mode="normal" in2="shape" result="effect1_innerShadow_151_4332"/>
</filter>
<filter id="filter5_i_151_4332" x="26.147" y="21.8269" width="2.76133" height="3.97339" filterUnits="userSpaceOnUse" color-interpolation-filters="sRGB">
<feFlood flood-opacity="0" result="BackgroundImageFix"/>
<feBlend mode="normal" in="SourceGraphic" in2="BackgroundImageFix" result="shape"/>
<feColorMatrix in="SourceAlpha" type="matrix" values="0 0 0 0 0 0 0 0 0 0 0 0 0 0 0 0 0 0 127 0" result="hardAlpha"/>
<feOffset dx="0.75" dy="-0.5"/>
<feGaussianBlur stdDeviation="0.325"/>
<feComposite in2="hardAlpha" operator="arithmetic" k2="-1" k3="1"/>
<feColorMatrix type="matrix" values="0 0 0 0 0.878431 0 0 0 0 0.560784 0 0 0 0 0.192157 0 0 0 1 0"/>
<feBlend mode="normal" in2="shape" result="effect1_innerShadow_151_4332"/>
</filter>
<filter id="filter6_f_151_4332" x="22.3667" y="13.7644" width="6.65625" height="6.65625" filterUnits="userSpaceOnUse" color-interpolation-filters="sRGB">
<feFlood flood-opacity="0" result="BackgroundImageFix"/>
<feBlend mode="normal" in="SourceGraphic" in2="BackgroundImageFix" result="shape"/>
<feGaussianBlur stdDeviation="0.125" result="effect1_foregroundBlur_151_4332"/>
</filter>
<filter id="filter7_i_151_4332" x="22.0667" y="13.5144" width="7.20625" height="7.20625" filterUnits="userSpaceOnUse" color-interpolation-filters="sRGB">
<feFlood flood-opacity="0" result="BackgroundImageFix"/>
<feBlend mode="normal" in="SourceGraphic" in2="BackgroundImageFix" result="shape"/>
<feColorMatrix in="SourceAlpha" type="matrix" values="0 0 0 0 0 0 0 0 0 0 0 0 0 0 0 0 0 0 127 0" result="hardAlpha"/>
<feOffset dx="-0.05" dy="0.05"/>
<feGaussianBlur stdDeviation="0.025"/>
<feComposite in2="hardAlpha" operator="arithmetic" k2="-1" k3="1"/>
<feColorMatrix type="matrix" values="0 0 0 0 0.223529 0 0 0 0 0.27451 0 0 0 0 0.435294 0 0 0 1 0"/>
<feBlend mode="normal" in2="shape" result="effect1_innerShadow_151_4332"/>
</filter>
<filter id="filter8_i_151_4332" x="23.1313" y="23.8688" width="5.42695" height="6.05186" filterUnits="userSpaceOnUse" color-interpolation-filters="sRGB">
<feFlood flood-opacity="0" result="BackgroundImageFix"/>
<feBlend mode="normal" in="SourceGraphic" in2="BackgroundImageFix" result="shape"/>
<feColorMatrix in="SourceAlpha" type="matrix" values="0 0 0 0 0 0 0 0 0 0 0 0 0 0 0 0 0 0 127 0" result="hardAlpha"/>
<feOffset dx="0.3" dy="-0.15"/>
<feGaussianBlur stdDeviation="0.3"/>
<feComposite in2="hardAlpha" operator="arithmetic" k2="-1" k3="1"/>
<feColorMatrix type="matrix" values="0 0 0 0 0.870588 0 0 0 0 0.513726 0 0 0 0 0.34902 0 0 0 1 0"/>
<feBlend mode="normal" in2="shape" result="effect1_innerShadow_151_4332"/>
</filter>
<filter id="filter9_f_151_4332" x="23.5743" y="25.4051" width="2.21172" height="0.249805" filterUnits="userSpaceOnUse" color-interpolation-filters="sRGB">
<feFlood flood-opacity="0" result="BackgroundImageFix"/>
<feBlend mode="normal" in="SourceGraphic" in2="BackgroundImageFix" result="shape"/>
<feGaussianBlur stdDeviation="0.05" result="effect1_foregroundBlur_151_4332"/>
</filter>
<filter id="filter10_f_151_4332" x="23.4889" y="26.829" width="2.21172" height="0.249805" filterUnits="userSpaceOnUse" color-interpolation-filters="sRGB">
<feFlood flood-opacity="0" result="BackgroundImageFix"/>
<feBlend mode="normal" in="SourceGraphic" in2="BackgroundImageFix" result="shape"/>
<feGaussianBlur stdDeviation="0.05" result="effect1_foregroundBlur_151_4332"/>
</filter>
<filter id="filter11_f_151_4332" x="23.5743" y="28.2533" width="2.21172" height="0.249805" filterUnits="userSpaceOnUse" color-interpolation-filters="sRGB">
<feFlood flood-opacity="0" result="BackgroundImageFix"/>
<feBlend mode="normal" in="SourceGraphic" in2="BackgroundImageFix" result="shape"/>
<feGaussianBlur stdDeviation="0.05" result="effect1_foregroundBlur_151_4332"/>
</filter>
<filter id="filter12_i_151_4332" x="7.66455" y="11.1355" width="3.77383" height="3.67383" filterUnits="userSpaceOnUse" color-interpolation-filters="sRGB">
<feFlood flood-opacity="0" result="BackgroundImageFix"/>
<feBlend mode="normal" in="SourceGraphic" in2="BackgroundImageFix" result="shape"/>
<feColorMatrix in="SourceAlpha" type="matrix" values="0 0 0 0 0 0 0 0 0 0 0 0 0 0 0 0 0 0 127 0" result="hardAlpha"/>
<feOffset dx="0.1"/>
<feGaussianBlur stdDeviation="0.15"/>
<feComposite in2="hardAlpha" operator="arithmetic" k2="-1" k3="1"/>
<feColorMatrix type="matrix" values="0 0 0 0 0.768627 0 0 0 0 0.501961 0 0 0 0 0.160784 0 0 0 1 0"/>
<feBlend mode="normal" in2="shape" result="effect1_innerShadow_151_4332"/>
</filter>
<filter id="filter13_i_151_4332" x="18.5249" y="10.885" width="3.67383" height="3.92383" filterUnits="userSpaceOnUse" color-interpolation-filters="sRGB">
<feFlood flood-opacity="0" result="BackgroundImageFix"/>
<feBlend mode="normal" in="SourceGraphic" in2="BackgroundImageFix" result="shape"/>
<feColorMatrix in="SourceAlpha" type="matrix" values="0 0 0 0 0 0 0 0 0 0 0 0 0 0 0 0 0 0 127 0" result="hardAlpha"/>
<feOffset dy="-0.25"/>
<feGaussianBlur stdDeviation="0.25"/>
<feComposite in2="hardAlpha" operator="arithmetic" k2="-1" k3="1"/>
<feColorMatrix type="matrix" values="0 0 0 0 0.937255 0 0 0 0 0.576471 0 0 0 0 0.341176 0 0 0 1 0"/>
<feBlend mode="normal" in2="shape" result="effect1_innerShadow_151_4332"/>
</filter>
<filter id="filter14_f_151_4332" x="18.6357" y="11.2458" width="3.45215" height="3.45239" filterUnits="userSpaceOnUse" color-interpolation-filters="sRGB">
<feFlood flood-opacity="0" result="BackgroundImageFix"/>
<feBlend mode="normal" in="SourceGraphic" in2="BackgroundImageFix" result="shape"/>
<feGaussianBlur stdDeviation="0.25" result="effect1_foregroundBlur_151_4332"/>
</filter>
<filter id="filter15_f_151_4332" x="8.04785" y="11.4958" width="2.95215" height="2.95239" filterUnits="userSpaceOnUse" color-interpolation-filters="sRGB">
<feFlood flood-opacity="0" result="BackgroundImageFix"/>
<feBlend mode="normal" in="SourceGraphic" in2="BackgroundImageFix" result="shape"/>
<feGaussianBlur stdDeviation="0.125" result="effect1_foregroundBlur_151_4332"/>
</filter>
<filter id="filter16_i_151_4332" x="9.03467" y="7.05054" width="12.3838" height="12.4167" filterUnits="userSpaceOnUse" color-interpolation-filters="sRGB">
<feFlood flood-opacity="0" result="BackgroundImageFix"/>
<feBlend mode="normal" in="SourceGraphic" in2="BackgroundImageFix" result="shape"/>
<feColorMatrix in="SourceAlpha" type="matrix" values="0 0 0 0 0 0 0 0 0 0 0 0 0 0 0 0 0 0 127 0" result="hardAlpha"/>
<feOffset dx="0.75"/>
<feGaussianBlur stdDeviation="0.625"/>
<feComposite in2="hardAlpha" operator="arithmetic" k2="-1" k3="1"/>
<feColorMatrix type="matrix" values="0 0 0 0 0.823529 0 0 0 0 0.603922 0 0 0 0 0.282353 0 0 0 1 0"/>
<feBlend mode="normal" in2="shape" result="effect1_innerShadow_151_4332"/>
</filter>
<filter id="filter17_f_151_4332" x="13.0942" y="11.719" width="3.14307" height="4.06152" filterUnits="userSpaceOnUse" color-interpolation-filters="sRGB">
<feFlood flood-opacity="0" result="BackgroundImageFix"/>
<feBlend mode="normal" in="SourceGraphic" in2="BackgroundImageFix" result="shape"/>
<feGaussianBlur stdDeviation="0.25" result="effect1_foregroundBlur_151_4332"/>
</filter>
<filter id="filter18_if_151_4332" x="13.5298" y="11.8108" width="2.64307" height="3.56152" filterUnits="userSpaceOnUse" color-interpolation-filters="sRGB">
<feFlood flood-opacity="0" result="BackgroundImageFix"/>
<feBlend mode="normal" in="SourceGraphic" in2="BackgroundImageFix" result="shape"/>
<feColorMatrix in="SourceAlpha" type="matrix" values="0 0 0 0 0 0 0 0 0 0 0 0 0 0 0 0 0 0 127 0" result="hardAlpha"/>
<feOffset dx="0.1" dy="-0.1"/>
<feGaussianBlur stdDeviation="0.05"/>
<feComposite in2="hardAlpha" operator="arithmetic" k2="-1" k3="1"/>
<feColorMatrix type="matrix" values="0 0 0 0 0.824136 0 0 0 0 0.46236 0 0 0 0 0.134858 0 0 0 1 0"/>
<feBlend mode="normal" in2="shape" result="effect1_innerShadow_151_4332"/>
<feGaussianBlur stdDeviation="0.125" result="effect2_foregroundBlur_151_4332"/>
</filter>
<filter id="filter19_f_151_4332" x="13.5298" y="11.6594" width="2.64307" height="3.56152" filterUnits="userSpaceOnUse" color-interpolation-filters="sRGB">
<feFlood flood-opacity="0" result="BackgroundImageFix"/>
<feBlend mode="normal" in="SourceGraphic" in2="BackgroundImageFix" result="shape"/>
<feGaussianBlur stdDeviation="0.125" result="effect1_foregroundBlur_151_4332"/>
</filter>
<filter id="filter20_f_151_4332" x="12.7662" y="15.7323" width="4.16973" height="1.68535" filterUnits="userSpaceOnUse" color-interpolation-filters="sRGB">
<feFlood flood-opacity="0" result="BackgroundImageFix"/>
<feBlend mode="normal" in="SourceGraphic" in2="BackgroundImageFix" result="shape"/>
<feGaussianBlur stdDeviation="0.05" result="effect1_foregroundBlur_151_4332"/>
</filter>
<filter id="filter21_i_151_4332" x="16.1553" y="11.2483" width="3.39775" height="1.46753" filterUnits="userSpaceOnUse" color-interpolation-filters="sRGB">
<feFlood flood-opacity="0" result="BackgroundImageFix"/>
<feBlend mode="normal" in="SourceGraphic" in2="BackgroundImageFix" result="shape"/>
<feColorMatrix in="SourceAlpha" type="matrix" values="0 0 0 0 0 0 0 0 0 0 0 0 0 0 0 0 0 0 127 0" result="hardAlpha"/>
<feOffset dx="0.2"/>
<feGaussianBlur stdDeviation="0.125"/>
<feComposite in2="hardAlpha" operator="arithmetic" k2="-1" k3="1"/>
<feColorMatrix type="matrix" values="0 0 0 0 0.133333 0 0 0 0 0.0784314 0 0 0 0 0.168627 0 0 0 1 0"/>
<feBlend mode="normal" in2="shape" result="effect1_innerShadow_151_4332"/>
</filter>
<filter id="filter22_i_151_4332" x="10.3496" y="11.2483" width="3.39775" height="1.46753" filterUnits="userSpaceOnUse" color-interpolation-filters="sRGB">
<feFlood flood-opacity="0" result="BackgroundImageFix"/>
<feBlend mode="normal" in="SourceGraphic" in2="BackgroundImageFix" result="shape"/>
<feColorMatrix in="SourceAlpha" type="matrix" values="0 0 0 0 0 0 0 0 0 0 0 0 0 0 0 0 0 0 127 0" result="hardAlpha"/>
<feOffset dx="0.2"/>
<feGaussianBlur stdDeviation="0.125"/>
<feComposite in2="hardAlpha" operator="arithmetic" k2="-1" k3="1"/>
<feColorMatrix type="matrix" values="0 0 0 0 0.133333 0 0 0 0 0.0784314 0 0 0 0 0.168627 0 0 0 1 0"/>
<feBlend mode="normal" in2="shape" result="effect1_innerShadow_151_4332"/>
</filter>
<filter id="filter23_f_151_4332" x="16.5177" y="11.6825" width="0.869434" height="0.765918" filterUnits="userSpaceOnUse" color-interpolation-filters="sRGB">
<feFlood flood-opacity="0" result="BackgroundImageFix"/>
<feBlend mode="normal" in="SourceGraphic" in2="BackgroundImageFix" result="shape"/>
<feGaussianBlur stdDeviation="0.05" result="effect1_foregroundBlur_151_4332"/>
</filter>
<filter id="filter24_f_151_4332" x="17.4914" y="11.7817" width="0.960059" height="0.985449" filterUnits="userSpaceOnUse" color-interpolation-filters="sRGB">
<feFlood flood-opacity="0" result="BackgroundImageFix"/>
<feBlend mode="normal" in="SourceGraphic" in2="BackgroundImageFix" result="shape"/>
<feGaussianBlur stdDeviation="0.1" result="effect1_foregroundBlur_151_4332"/>
</filter>
<filter id="filter25_f_151_4332" x="12.4196" y="11.7094" width="1.06846" height="1.12998" filterUnits="userSpaceOnUse" color-interpolation-filters="sRGB">
<feFlood flood-opacity="0" result="BackgroundImageFix"/>
<feBlend mode="normal" in="SourceGraphic" in2="BackgroundImageFix" result="shape"/>
<feGaussianBlur stdDeviation="0.1" result="effect1_foregroundBlur_151_4332"/>
</filter>
<filter id="filter26_f_151_4332" x="11.5436" y="11.6732" width="1.0125" height="0.774707" filterUnits="userSpaceOnUse" color-interpolation-filters="sRGB">
<feFlood flood-opacity="0" result="BackgroundImageFix"/>
<feBlend mode="normal" in="SourceGraphic" in2="BackgroundImageFix" result="shape"/>
<feGaussianBlur stdDeviation="0.05" result="effect1_foregroundBlur_151_4332"/>
</filter>
<filter id="filter27_i_151_4332" x="8.79785" y="2.07642" width="12.3696" height="3.94736" filterUnits="userSpaceOnUse" color-interpolation-filters="sRGB">
<feFlood flood-opacity="0" result="BackgroundImageFix"/>
<feBlend mode="normal" in="SourceGraphic" in2="BackgroundImageFix" result="shape"/>
<feColorMatrix in="SourceAlpha" type="matrix" values="0 0 0 0 0 0 0 0 0 0 0 0 0 0 0 0 0 0 127 0" result="hardAlpha"/>
<feOffset dx="0.25" dy="0.15"/>
<feGaussianBlur stdDeviation="0.325"/>
<feComposite in2="hardAlpha" operator="arithmetic" k2="-1" k3="1"/>
<feColorMatrix type="matrix" values="0 0 0 0 0.384314 0 0 0 0 0.34902 0 0 0 0 0.482353 0 0 0 1 0"/>
<feBlend mode="normal" in2="shape" result="effect1_innerShadow_151_4332"/>
</filter>
<filter id="filter28_ii_151_4332" x="4.91553" y="7.62524" width="19.9121" height="4.00244" filterUnits="userSpaceOnUse" color-interpolation-filters="sRGB">
<feFlood flood-opacity="0" result="BackgroundImageFix"/>
<feBlend mode="normal" in="SourceGraphic" in2="BackgroundImageFix" result="shape"/>
<feColorMatrix in="SourceAlpha" type="matrix" values="0 0 0 0 0 0 0 0 0 0 0 0 0 0 0 0 0 0 127 0" result="hardAlpha"/>
<feOffset dy="-0.25"/>
<feGaussianBlur stdDeviation="0.125"/>
<feComposite in2="hardAlpha" operator="arithmetic" k2="-1" k3="1"/>
<feColorMatrix type="matrix" values="0 0 0 0 0.494118 0 0 0 0 0.447059 0 0 0 0 0.545098 0 0 0 1 0"/>
<feBlend mode="normal" in2="shape" result="effect1_innerShadow_151_4332"/>
<feColorMatrix in="SourceAlpha" type="matrix" values="0 0 0 0 0 0 0 0 0 0 0 0 0 0 0 0 0 0 127 0" result="hardAlpha"/>
<feOffset dy="-0.15"/>
<feGaussianBlur stdDeviation="0.075"/>
<feComposite in2="hardAlpha" operator="arithmetic" k2="-1" k3="1"/>
<feColorMatrix type="matrix" values="0 0 0 0 0.376471 0 0 0 0 0.372549 0 0 0 0 0.6 0 0 0 1 0"/>
<feBlend mode="normal" in2="effect1_innerShadow_151_4332" result="effect2_innerShadow_151_4332"/>
</filter>
<linearGradient id="paint0_linear_151_4332" x1="21.0595" y1="12.3011" x2="11.9422" y2="20.0606" gradientUnits="userSpaceOnUse">
<stop stop-color="#FFBE35"/>
<stop offset="1" stop-color="#CD761A"/>
</linearGradient>
<radialGradient id="paint1_radial_151_4332" cx="0" cy="0" r="1" gradientUnits="userSpaceOnUse" gradientTransform="translate(9.63272 14.9733) rotate(90) scale(5.08736 3.06497)">
<stop stop-color="#C9641B"/>
<stop offset="1" stop-color="#D77117" stop-opacity="0"/>
</radialGradient>
<radialGradient id="paint2_radial_151_4332" cx="0" cy="0" r="1" gradientUnits="userSpaceOnUse" gradientTransform="translate(9.2452 13.018) rotate(127.617) scale(2.32053 2.25311)">
<stop offset="0.161391" stop-color="#C9681C"/>
<stop offset="1" stop-color="#C9681C" stop-opacity="0"/>
</radialGradient>
<radialGradient id="paint3_radial_151_4332" cx="0" cy="0" r="1" gradientUnits="userSpaceOnUse" gradientTransform="translate(9.9199 10.2364) rotate(100.537) scale(2.91888 3.03947)">
<stop offset="0.365444" stop-color="#D76A18"/>
<stop offset="1" stop-color="#D76A18" stop-opacity="0"/>
</radialGradient>
<radialGradient id="paint4_radial_151_4332" cx="0" cy="0" r="1" gradientUnits="userSpaceOnUse" gradientTransform="translate(11.0419 4.47486) rotate(62.6046) scale(2.71805 5.17782)">
<stop offset="0.221806" stop-color="#CBA140"/>
<stop offset="0.921111" stop-color="#CBA140" stop-opacity="0"/>
</radialGradient>
<radialGradient id="paint5_radial_151_4332" cx="0" cy="0" r="1" gradientUnits="userSpaceOnUse" gradientTransform="translate(21.1271 6.09264) rotate(132.51) scale(1.8689 2.61176)">
<stop stop-color="#FFDF3C"/>
<stop offset="1" stop-color="#FFDF3C" stop-opacity="0"/>
</radialGradient>
<radialGradient id="paint6_radial_151_4332" cx="0" cy="0" r="1" gradientUnits="userSpaceOnUse" gradientTransform="translate(23.4231 11.6798) rotate(163.779) scale(2.19193 4.76935)">
<stop stop-color="#FFD537"/>
<stop offset="1" stop-color="#FFD336" stop-opacity="0"/>
<stop offset="1" stop-color="#FFD537" stop-opacity="0"/>
</radialGradient>
<radialGradient id="paint7_radial_151_4332" cx="0" cy="0" r="1" gradientUnits="userSpaceOnUse" gradientTransform="translate(11.7631 7.32262) rotate(-90.3515) scale(1.56897 0.514413)">
<stop offset="0.295258" stop-color="#DB6009"/>
<stop offset="1" stop-color="#DB6009" stop-opacity="0"/>
</radialGradient>
<radialGradient id="paint8_radial_151_4332" cx="0" cy="0" r="1" gradientUnits="userSpaceOnUse" gradientTransform="translate(20.3581 11.0303) rotate(-86.4677) scale(2.86466 1.23747)">
<stop offset="0.213028" stop-color="#EA8915"/>
<stop offset="1" stop-color="#EA8915" stop-opacity="0"/>
</radialGradient>
<radialGradient id="paint9_radial_151_4332" cx="0" cy="0" r="1" gradientUnits="userSpaceOnUse" gradientTransform="translate(17.106 18.7608) rotate(-16.8584) scale(3.65153 3.89005)">
<stop offset="0.163443" stop-color="#915712"/>
<stop offset="1" stop-color="#915712" stop-opacity="0"/>
</radialGradient>
<radialGradient id="paint10_radial_151_4332" cx="0" cy="0" r="1" gradientUnits="userSpaceOnUse" gradientTransform="translate(12.9054 19.0785) rotate(-135.352) scale(4.06858 4.33434)">
<stop stop-color="#945B0E"/>
<stop offset="1" stop-color="#945B0E" stop-opacity="0"/>
</radialGradient>
<radialGradient id="paint11_radial_151_4332" cx="0" cy="0" r="1" gradientUnits="userSpaceOnUse" gradientTransform="translate(6.77325 21.8112) rotate(90) scale(4.90625 2.3125)">
<stop stop-color="#69638B"/>
<stop offset="1" stop-color="#69638B" stop-opacity="0"/>
</radialGradient>
<radialGradient id="paint12_radial_151_4332" cx="0" cy="0" r="1" gradientUnits="userSpaceOnUse" gradientTransform="translate(11.9295 29.7487) rotate(-120.646) scale(11.587 1.53635)">
<stop offset="0.336335" stop-color="#4F4376"/>
<stop offset="1" stop-color="#4F4376" stop-opacity="0"/>
</radialGradient>
<linearGradient id="paint13_linear_151_4332" x1="6.9881" y1="29.4049" x2="7.19513" y2="29.4049" gradientUnits="userSpaceOnUse">
<stop offset="0.150945" stop-color="#57497F"/>
<stop offset="1" stop-color="#57497F" stop-opacity="0"/>
</linearGradient>
<radialGradient id="paint14_radial_151_4332" cx="0" cy="0" r="1" gradientUnits="userSpaceOnUse" gradientTransform="translate(22.8358 22.1549) rotate(90) scale(8.0625 2.5)">
<stop offset="0.341085" stop-color="#6F6A93"/>
<stop offset="1" stop-color="#6F6A93" stop-opacity="0"/>
</radialGradient>
<radialGradient id="paint15_radial_151_4332" cx="0" cy="0" r="1" gradientUnits="userSpaceOnUse" gradientTransform="translate(19.0545 27.0924) rotate(20.4926) scale(3.30276 13.733)">
<stop offset="0.186148" stop-color="#4E4270"/>
<stop offset="1" stop-color="#4E4270" stop-opacity="0"/>
</radialGradient>
<linearGradient id="paint16_linear_151_4332" x1="16.981" y1="28.5469" x2="14.8953" y2="28.1213" gradientUnits="userSpaceOnUse">
<stop offset="0.0445822" stop-color="#897B8E"/>
<stop offset="1" stop-color="#8C7C93" stop-opacity="0"/>
</linearGradient>
<radialGradient id="paint17_radial_151_4332" cx="0" cy="0" r="1" gradientUnits="userSpaceOnUse" gradientTransform="translate(18.1655 21.7519) rotate(103.743) scale(2.95973 1.64796)">
<stop offset="0.184277" stop-color="#4E4854"/>
<stop offset="1" stop-color="#4E4854" stop-opacity="0"/>
</radialGradient>
<radialGradient id="paint18_radial_151_4332" cx="0" cy="0" r="1" gradientUnits="userSpaceOnUse" gradientTransform="translate(11.6344 20.886) rotate(76.4035) scale(3.58254 1.89916)">
<stop offset="0.624088" stop-color="#514C59"/>
<stop offset="1" stop-color="#837A8E" stop-opacity="0"/>
</radialGradient>
<radialGradient id="paint19_radial_151_4332" cx="0" cy="0" r="1" gradientUnits="userSpaceOnUse" gradientTransform="translate(6.367 29.9205) rotate(-90) scale(10.3594 4.25)">
<stop offset="0.390651" stop-color="#6A5E90"/>
<stop offset="1" stop-color="#857DA2"/>
</radialGradient>
<radialGradient id="paint20_radial_151_4332" cx="0" cy="0" r="1" gradientUnits="userSpaceOnUse" gradientTransform="translate(7.52325 20.8424) rotate(117.646) scale(4.44498 4.85494)">
<stop stop-color="#605A74"/>
<stop offset="1" stop-color="#605A74" stop-opacity="0"/>
</radialGradient>
<radialGradient id="paint21_radial_151_4332" cx="0" cy="0" r="1" gradientUnits="userSpaceOnUse" gradientTransform="translate(7.02325 29.9205) rotate(-90) scale(11.7344 2.803)">
<stop offset="0.333335" stop-color="#4F456A"/>
<stop offset="1" stop-color="#4F456A" stop-opacity="0"/>
</radialGradient>
<radialGradient id="paint22_radial_151_4332" cx="0" cy="0" r="1" gradientUnits="userSpaceOnUse" gradientTransform="translate(24.8748 23.4674) rotate(90) scale(6.45316 3.24716)">
<stop stop-color="#696284"/>
<stop offset="1" stop-color="#5E5775"/>
</radialGradient>
<radialGradient id="paint23_radial_151_4332" cx="0" cy="0" r="1" gradientUnits="userSpaceOnUse" gradientTransform="translate(22.7267 29.9205) rotate(-7.92333) scale(1.98219 11.7331)">
<stop offset="0.23507" stop-color="#403357"/>
<stop offset="1" stop-color="#403357" stop-opacity="0"/>
</radialGradient>
<radialGradient id="paint24_radial_151_4332" cx="0" cy="0" r="1" gradientUnits="userSpaceOnUse" gradientTransform="translate(14.8589 22.6531) rotate(90) scale(2.2093 2.72578)">
<stop stop-color="#CE3657"/>
<stop offset="1" stop-color="#B41945"/>
</radialGradient>
<radialGradient id="paint25_radial_151_4332" cx="0" cy="0" r="1" gradientUnits="userSpaceOnUse" gradientTransform="translate(14.8511 24.78) rotate(90) scale(6.0625 0.953125)">
<stop stop-color="#C03660"/>
<stop offset="1" stop-color="#B4366C"/>
</radialGradient>
<linearGradient id="paint26_linear_151_4332" x1="13.7261" y1="26.7644" x2="14.2261" y2="26.8113" gradientUnits="userSpaceOnUse">
<stop stop-color="#AD254B"/>
<stop offset="1" stop-color="#AD254B" stop-opacity="0"/>
</linearGradient>
<linearGradient id="paint27_linear_151_4332" x1="16.4136" y1="29.0681" x2="15.1527" y2="29.1211" gradientUnits="userSpaceOnUse">
<stop offset="0.0647077" stop-color="#810937"/>
<stop offset="1" stop-color="#B6376A" stop-opacity="0"/>
</linearGradient>
<radialGradient id="paint28_radial_151_4332" cx="0" cy="0" r="1" gradientUnits="userSpaceOnUse" gradientTransform="translate(14.3979 20.9675) rotate(149.478) scale(4.86106 7.51927)">
<stop offset="0.115428" stop-color="#DBC8D7"/>
<stop offset="1" stop-color="#AB9CA0"/>
</radialGradient>
<linearGradient id="paint29_linear_151_4332" x1="11.6752" y1="21.6481" x2="12.6117" y2="21.4672" gradientUnits="userSpaceOnUse">
<stop stop-color="#7C707D"/>
<stop offset="1" stop-color="#CFBDC9" stop-opacity="0"/>
</linearGradient>
<radialGradient id="paint30_radial_151_4332" cx="0" cy="0" r="1" gradientUnits="userSpaceOnUse" gradientTransform="translate(12.335 18.86) rotate(104.036) scale(1.84281 2.98915)">
<stop stop-color="#988B89"/>
<stop offset="1" stop-color="#988B89" stop-opacity="0"/>
</radialGradient>
<radialGradient id="paint31_radial_151_4332" cx="0" cy="0" r="1" gradientUnits="userSpaceOnUse" gradientTransform="translate(14.2824 22.5739) rotate(-132.274) scale(0.474597 3.14327)">
<stop stop-color="#CEADC3"/>
<stop offset="1" stop-color="#CEADC3" stop-opacity="0"/>
</radialGradient>
<radialGradient id="paint32_radial_151_4332" cx="0" cy="0" r="1" gradientUnits="userSpaceOnUse" gradientTransform="translate(14.0483 20.8606) rotate(132.316) scale(0.964226 2.20047)">
<stop offset="0.193073" stop-color="#CEADC3"/>
<stop offset="1" stop-color="#CEADC3" stop-opacity="0"/>
</radialGradient>
<radialGradient id="paint33_radial_151_4332" cx="0" cy="0" r="1" gradientUnits="userSpaceOnUse" gradientTransform="translate(15.5855 20.4675) rotate(52.7298) scale(4.0251 6.22617)">
<stop offset="0.17441" stop-color="#DCC8D0"/>
<stop offset="1" stop-color="#D1C0D6"/>
</radialGradient>
<linearGradient id="paint34_linear_151_4332" x1="18.0738" y1="21.6481" x2="17.1373" y2="21.4672" gradientUnits="userSpaceOnUse">
<stop stop-color="#7C707D"/>
<stop offset="1" stop-color="#CFBDC9" stop-opacity="0"/>
</linearGradient>
<radialGradient id="paint35_radial_151_4332" cx="0" cy="0" r="1" gradientUnits="userSpaceOnUse" gradientTransform="translate(17.414 18.86) rotate(75.9638) scale(1.84281 2.98915)">
<stop stop-color="#988B89"/>
<stop offset="1" stop-color="#988B89" stop-opacity="0"/>
</radialGradient>
<radialGradient id="paint36_radial_151_4332" cx="0" cy="0" r="1" gradientUnits="userSpaceOnUse" gradientTransform="translate(15.4666 22.5739) rotate(-47.7263) scale(0.474597 3.14327)">
<stop stop-color="#CEADC3"/>
<stop offset="1" stop-color="#CEADC3" stop-opacity="0"/>
</radialGradient>
<radialGradient id="paint37_radial_151_4332" cx="0" cy="0" r="1" gradientUnits="userSpaceOnUse" gradientTransform="translate(15.7007 20.8606) rotate(47.6838) scale(0.964227 2.20047)">
<stop offset="0.193073" stop-color="#CEADC3"/>
<stop offset="1" stop-color="#CEADC3" stop-opacity="0"/>
</radialGradient>
<linearGradient id="paint38_linear_151_4332" x1="12.2186" y1="26.168" x2="9.39221" y2="26.8051" gradientUnits="userSpaceOnUse">
<stop stop-color="#675685"/>
<stop offset="1" stop-color="#665C8A"/>
</linearGradient>
<linearGradient id="paint39_linear_151_4332" x1="9.39222" y1="16.9749" x2="11.0856" y2="22.3736" gradientUnits="userSpaceOnUse">
<stop stop-color="#5E5A78"/>
<stop offset="1" stop-color="#5E5A78" stop-opacity="0"/>
</linearGradient>
<radialGradient id="paint40_radial_151_4332" cx="0" cy="0" r="1" gradientUnits="userSpaceOnUse" gradientTransform="translate(12.3166 19.4056) rotate(-154.011) scale(8.72259 3.48034)">
<stop offset="0.303245" stop-color="#3F3050"/>
<stop offset="1" stop-color="#534971" stop-opacity="0"/>
</radialGradient>
<linearGradient id="paint41_linear_151_4332" x1="12.2676" y1="29.9205" x2="12.2676" y2="24.6979" gradientUnits="userSpaceOnUse">
<stop stop-color="#624C7F"/>
<stop offset="1" stop-color="#624C7F" stop-opacity="0"/>
</linearGradient>
<radialGradient id="paint42_radial_151_4332" cx="0" cy="0" r="1" gradientUnits="userSpaceOnUse" gradientTransform="translate(6.85126 19.5142) rotate(33.1901) scale(2.48324 0.746597)">
<stop stop-color="#767290"/>
<stop offset="1" stop-color="#5C5178" stop-opacity="0"/>
</radialGradient>
<linearGradient id="paint43_linear_151_4332" x1="18.0229" y1="29.1236" x2="21.3041" y2="16.9749" gradientUnits="userSpaceOnUse">
<stop offset="0.451835" stop-color="#5B4373"/>
<stop offset="1" stop-color="#645D7E"/>
</linearGradient>
<linearGradient id="paint44_linear_151_4332" x1="16.9995" y1="26.5376" x2="17.1518" y2="26.5689" gradientUnits="userSpaceOnUse">
<stop stop-color="#573A60"/>
<stop offset="1" stop-color="#573A60" stop-opacity="0"/>
</linearGradient>
<radialGradient id="paint45_radial_151_4332" cx="0" cy="0" r="1" gradientUnits="userSpaceOnUse" gradientTransform="translate(17.1479 23.2486) rotate(-40.9508) scale(4.24352 2.64912)">
<stop stop-color="#5B4361"/>
<stop offset="1" stop-color="#5B4361" stop-opacity="0"/>
</radialGradient>
<radialGradient id="paint46_radial_151_4332" cx="0" cy="0" r="1" gradientUnits="userSpaceOnUse" gradientTransform="translate(22.1791 19.9673) rotate(149.744) scale(1.73656 0.440887)">
<stop stop-color="#6A6385"/>
<stop offset="1" stop-color="#6A6385" stop-opacity="0"/>
</radialGradient>
<radialGradient id="paint47_radial_151_4332" cx="0" cy="0" r="1" gradientUnits="userSpaceOnUse" gradientTransform="translate(27.8932 22.6508) rotate(117.802) scale(2.05934 1.65405)">
<stop stop-color="#FFE047"/>
<stop offset="0.827998" stop-color="#FFD235"/>
</radialGradient>
<radialGradient id="paint48_radial_151_4332" cx="0" cy="0" r="1" gradientUnits="userSpaceOnUse" gradientTransform="translate(26.881 24.0635) rotate(-44.7339) scale(0.648307 0.690345)">
<stop stop-color="#EFA20D"/>
<stop offset="1" stop-color="#EFA20D" stop-opacity="0"/>
</radialGradient>
<linearGradient id="paint49_linear_151_4332" x1="26.9812" y1="21.78" x2="24.9918" y2="21.78" gradientUnits="userSpaceOnUse">
<stop stop-color="#443665"/>
<stop offset="1" stop-color="#39304B"/>
</linearGradient>
<linearGradient id="paint50_linear_151_4332" x1="26.3356" y1="25.4675" x2="26.3356" y2="22.5613" gradientUnits="userSpaceOnUse">
<stop stop-color="#4C3156"/>
<stop offset="1" stop-color="#4C3156" stop-opacity="0"/>
</linearGradient>
<radialGradient id="paint51_radial_151_4332" cx="0" cy="0" r="1" gradientUnits="userSpaceOnUse" gradientTransform="translate(25.5387 20.2253) rotate(156.49) scale(1.50799 1.09621)">
<stop offset="0.19832" stop-color="#0D0E30"/>
<stop offset="1" stop-color="#0D0E30" stop-opacity="0"/>
</radialGradient>
<radialGradient id="paint52_radial_151_4332" cx="0" cy="0" r="1" gradientUnits="userSpaceOnUse" gradientTransform="translate(26.5231 21.2644) scale(0.90625 0.428747)">
<stop offset="0.112069" stop-color="#46446D"/>
<stop offset="1" stop-color="#46446D" stop-opacity="0"/>
</radialGradient>
<radialGradient id="paint53_radial_151_4332" cx="0" cy="0" r="1" gradientUnits="userSpaceOnUse" gradientTransform="translate(28.1502 15.2484) rotate(132.011) scale(5.85076 5.64598)">
<stop offset="0.00424644" stop-color="#50D5FA"/>
<stop offset="1" stop-color="#27A8E3"/>
</radialGradient>
<radialGradient id="paint54_radial_151_4332" cx="0" cy="0" r="1" gradientUnits="userSpaceOnUse" gradientTransform="translate(23.3716 19.7283) rotate(-47.925) scale(3.21891 6.25139)">
<stop stop-color="#2683C8"/>
<stop offset="1" stop-color="#2BACE5" stop-opacity="0"/>
</radialGradient>
<linearGradient id="paint55_linear_151_4332" x1="28.1792" y1="14.3425" x2="23.3667" y2="19.78" gradientUnits="userSpaceOnUse">
<stop stop-color="#202D61"/>
<stop offset="1" stop-color="#452053"/>
</linearGradient>
<radialGradient id="paint56_radial_151_4332" cx="0" cy="0" r="1" gradientUnits="userSpaceOnUse" gradientTransform="translate(26.0964 18.1168) rotate(-87.8241) scale(2.02623 3.71368)">
<stop offset="0.179541" stop-color="#DBF3FF" stop-opacity="0"/>
<stop offset="1" stop-color="#DBF3FF"/>
</radialGradient>
<linearGradient id="paint57_linear_151_4332" x1="28.2582" y1="27.8055" x2="23.1313" y2="27.8055" gradientUnits="userSpaceOnUse">
<stop stop-color="#FFE132"/>
<stop offset="0.754608" stop-color="#FFAE37"/>
</linearGradient>
<radialGradient id="paint58_radial_151_4332" cx="0" cy="0" r="1" gradientUnits="userSpaceOnUse" gradientTransform="translate(27.845 24.0188) rotate(121.171) scale(3.05011 2.52339)">
<stop stop-color="#FFE136"/>
<stop offset="1" stop-color="#FFE136" stop-opacity="0"/>
</radialGradient>
<radialGradient id="paint59_radial_151_4332" cx="0" cy="0" r="1" gradientUnits="userSpaceOnUse" gradientTransform="translate(23.3346 25.5212) scale(2.52448 0.50881)">
<stop offset="0.248062" stop-color="#F9A42E"/>
<stop offset="1" stop-color="#F9A42E" stop-opacity="0"/>
</radialGradient>
<radialGradient id="paint60_radial_151_4332" cx="0" cy="0" r="1" gradientUnits="userSpaceOnUse" gradientTransform="translate(23.1313 26.9697) scale(2.83004 0.570396)">
<stop offset="0.248062" stop-color="#F9A42E"/>
<stop offset="1" stop-color="#F9A42E" stop-opacity="0"/>
</radialGradient>
<radialGradient id="paint61_radial_151_4332" cx="0" cy="0" r="1" gradientUnits="userSpaceOnUse" gradientTransform="translate(23.0275 28.3527) scale(2.96797 0.358203)">
<stop offset="0.248062" stop-color="#F9A42E"/>
<stop offset="1" stop-color="#F9A42E" stop-opacity="0"/>
</radialGradient>
<linearGradient id="paint62_linear_151_4332" x1="25.5337" y1="25.53" x2="23.5294" y2="25.53" gradientUnits="userSpaceOnUse">
<stop stop-color="#C88714" stop-opacity="0"/>
<stop offset="1" stop-color="#C07200"/>
</linearGradient>
<linearGradient id="paint63_linear_151_4332" x1="25.4482" y1="26.9539" x2="23.444" y2="26.9539" gradientUnits="userSpaceOnUse">
<stop stop-color="#C88714" stop-opacity="0"/>
<stop offset="1" stop-color="#C07200"/>
</linearGradient>
<linearGradient id="paint64_linear_151_4332" x1="25.5337" y1="28.3782" x2="23.5294" y2="28.3782" gradientUnits="userSpaceOnUse">
<stop stop-color="#C88714" stop-opacity="0"/>
<stop offset="1" stop-color="#C07200"/>
</linearGradient>
<radialGradient id="paint65_radial_151_4332" cx="0" cy="0" r="1" gradientUnits="userSpaceOnUse" gradientTransform="translate(13.4678 18.5071) rotate(34.2758) scale(4.32901 5.02447)">
<stop stop-color="#B97B22"/>
<stop offset="0.432874" stop-color="#DF8C27"/>
<stop offset="0.660191" stop-color="#DF8C27"/>
<stop offset="1" stop-color="#E7B83D"/>
</radialGradient>
<radialGradient id="paint66_radial_151_4332" cx="0" cy="0" r="1" gradientUnits="userSpaceOnUse" gradientTransform="translate(14.8514 18.7288) rotate(90) scale(1.19175 2.84686)">
<stop offset="0.46245" stop-color="#CF7A2E"/>
<stop offset="1" stop-color="#CF7A2E" stop-opacity="0"/>
</radialGradient>
<linearGradient id="paint67_linear_151_4332" x1="7.66455" y1="13.0719" x2="11.0428" y2="13.0719" gradientUnits="userSpaceOnUse">
<stop stop-color="#E79B27"/>
<stop offset="1" stop-color="#B96201"/>
</linearGradient>
<radialGradient id="paint68_radial_151_4332" cx="0" cy="0" r="1" gradientUnits="userSpaceOnUse" gradientTransform="translate(19.4626 13.4732) rotate(-24.444) scale(3.1212 3.81084)">
<stop offset="0.572298" stop-color="#FFC531"/>
<stop offset="0.904617" stop-color="#FFE549"/>
</radialGradient>
<radialGradient id="paint69_radial_151_4332" cx="0" cy="0" r="1" gradientUnits="userSpaceOnUse" gradientTransform="translate(20.0941 13.2437) rotate(-20.2976) scale(1.48928)">
<stop offset="0.71002" stop-color="#FFBA25" stop-opacity="0"/>
<stop offset="1" stop-color="#FFBA25"/>
</radialGradient>
<radialGradient id="paint70_radial_151_4332" cx="0" cy="0" r="1" gradientUnits="userSpaceOnUse" gradientTransform="translate(9.52403 12.972) rotate(-180) scale(1.22618 1.17291)">
<stop offset="0.415002" stop-color="#D67923" stop-opacity="0"/>
<stop offset="1" stop-color="#D67923"/>
</radialGradient>
<radialGradient id="paint71_radial_151_4332" cx="0" cy="0" r="1" gradientUnits="userSpaceOnUse" gradientTransform="translate(20.6683 14.3115) rotate(168.938) scale(8.14325 13.6948)">
<stop stop-color="#FFCB2E"/>
<stop offset="1" stop-color="#EF952A"/>
</radialGradient>
<radialGradient id="paint72_radial_151_4332" cx="0" cy="0" r="1" gradientUnits="userSpaceOnUse" gradientTransform="translate(14.8515 12.5339) rotate(90) scale(6.93333 9.48559)">
<stop offset="0.589812" stop-color="#EE9339" stop-opacity="0"/>
<stop offset="1" stop-color="#C8752B"/>
</radialGradient>
<radialGradient id="paint73_radial_151_4332" cx="0" cy="0" r="1" gradientUnits="userSpaceOnUse" gradientTransform="translate(14.4841 10.9086) rotate(83.7511) scale(3.37543 9.1523)">
<stop stop-color="#DD7D28"/>
<stop offset="1" stop-color="#DD7D28" stop-opacity="0"/>
</radialGradient>
<radialGradient id="paint74_radial_151_4332" cx="0" cy="0" r="1" gradientUnits="userSpaceOnUse" gradientTransform="translate(15.6529 14.2176) rotate(-101.889) scale(1.8203 1.3233)">
<stop offset="0.2374" stop-color="#FFB938"/>
<stop offset="1" stop-color="#FFB938" stop-opacity="0"/>
</radialGradient>
<linearGradient id="paint75_linear_151_4332" x1="14.8513" y1="11.9094" x2="15.061" y2="13.0156" gradientUnits="userSpaceOnUse">
<stop stop-color="#E48A2A"/>
<stop offset="1" stop-color="#E48A2A" stop-opacity="0"/>
</linearGradient>
<linearGradient id="paint76_linear_151_4332" x1="14.0189" y1="17.1411" x2="14.5355" y2="16.1461" gradientUnits="userSpaceOnUse">
<stop stop-color="#FEAC35"/>
<stop offset="1" stop-color="#FEAC35" stop-opacity="0"/>
</linearGradient>
<radialGradient id="paint77_radial_151_4332" cx="0" cy="0" r="1" gradientUnits="userSpaceOnUse" gradientTransform="translate(17.3419 12.912) rotate(-90) scale(1.21036 1.79535)">
<stop offset="0.599808" stop-color="#7A4646"/>
<stop offset="1" stop-color="#64352F"/>
</radialGradient>
<radialGradient id="paint78_radial_151_4332" cx="0" cy="0" r="1" gradientUnits="userSpaceOnUse" gradientTransform="translate(17.0807 12.2658) rotate(-127.812) scale(0.431296 0.593791)">
<stop offset="0.765532" stop-color="#FFE6E2" stop-opacity="0"/>
<stop offset="0.966159" stop-color="#FFE6E2"/>
</radialGradient>
<linearGradient id="paint79_linear_151_4332" x1="18.2299" y1="12.2311" x2="17.8721" y2="12.4515" gradientUnits="userSpaceOnUse">
<stop stop-color="#B4948D"/>
<stop offset="1" stop-color="#B4948D" stop-opacity="0"/>
</linearGradient>
<radialGradient id="paint80_radial_151_4332" cx="0" cy="0" r="1" gradientUnits="userSpaceOnUse" gradientTransform="translate(12.36 12.912) rotate(-90) scale(1.21036 1.79536)">
<stop offset="0.599808" stop-color="#7A4646"/>
<stop offset="1" stop-color="#64352F"/>
</radialGradient>
<linearGradient id="paint81_linear_151_4332" x1="13.2089" y1="12.231" x2="12.8511" y2="12.4514" gradientUnits="userSpaceOnUse">
<stop stop-color="#B4948D"/>
<stop offset="1" stop-color="#B4948D" stop-opacity="0"/>
</linearGradient>
<radialGradient id="paint82_radial_151_4332" cx="0" cy="0" r="1" gradientUnits="userSpaceOnUse" gradientTransform="translate(12.0325 12.4192) rotate(-90.8978) scale(0.56266 0.676947)">
<stop offset="0.765532" stop-color="#FFE6E2" stop-opacity="0"/>
<stop offset="0.966159" stop-color="#FFE6E2"/>
</radialGradient>
<radialGradient id="paint83_radial_151_4332" cx="0" cy="0" r="1" gradientUnits="userSpaceOnUse" gradientTransform="translate(20.9579 3.09264) rotate(154.156) scale(7.6706 5.15874)">
<stop stop-color="#7F81B2"/>
<stop offset="1" stop-color="#625783"/>
</radialGradient>
<radialGradient id="paint84_radial_151_4332" cx="0" cy="0" r="1" gradientUnits="userSpaceOnUse" gradientTransform="translate(8.49194 6.12389) rotate(-7.6668) scale(3.27931 7.68298)">
<stop stop-color="#766C87"/>
<stop offset="1" stop-color="#766C87" stop-opacity="0"/>
</radialGradient>
<radialGradient id="paint85_radial_151_4332" cx="0" cy="0" r="1" gradientUnits="userSpaceOnUse" gradientTransform="translate(11.6482 2.07642) rotate(69.2662) scale(2.03022 3.82049)">
<stop stop-color="#5F577E"/>
<stop offset="1" stop-color="#5F577E" stop-opacity="0"/>
</radialGradient>
<linearGradient id="paint86_linear_151_4332" x1="23.3043" y1="9.43635" x2="6.36682" y2="9.7515" gradientUnits="userSpaceOnUse">
<stop stop-color="#7577A1"/>
<stop offset="0.5193" stop-color="#5B537A"/>
<stop offset="0.980464" stop-color="#5C4B6C"/>
</linearGradient>
<radialGradient id="paint87_radial_151_4332" cx="0" cy="0" r="1" gradientUnits="userSpaceOnUse" gradientTransform="translate(19.2885 7.15503) rotate(179.635) scale(4.90635 4.18652)">
<stop stop-color="#574069"/>
<stop offset="1" stop-color="#372153"/>
</radialGradient>
<linearGradient id="paint88_linear_151_4332" x1="8.55408" y1="6.87573" x2="9.99158" y2="7.06128" gradientUnits="userSpaceOnUse">
<stop stop-color="#4C4364"/>
<stop offset="1" stop-color="#3E3058" stop-opacity="0"/>
</linearGradient>
<linearGradient id="paint89_linear_151_4332" x1="15.4603" y1="7.92847" x2="15.4603" y2="7.72534" gradientUnits="userSpaceOnUse">
<stop offset="0.0384608" stop-color="#2C1840"/>
<stop offset="1" stop-color="#2C1840" stop-opacity="0"/>
</linearGradient>
<linearGradient id="paint90_linear_151_4332" x1="15.5072" y1="5.84644" x2="15.5072" y2="5.98315" gradientUnits="userSpaceOnUse">
<stop offset="0.0384608" stop-color="#2C1840"/>
<stop offset="1" stop-color="#2C1840" stop-opacity="0"/>
</linearGradient>
</defs>
</svg>
